<?xml version="1.0" encoding="UTF-8"?>
<svg xmlns="http://www.w3.org/2000/svg" version="1.1" width="200" height="200" viewBox="0 0 200 200"><rect x="0" y="0" width="200" height="200" fill="#ffffff"/><g transform="scale(3.509)"><g transform="translate(0,0)"><path fill-rule="evenodd" d="M8 0L8 3L9 3L9 4L10 4L10 5L8 5L8 9L7 9L7 8L6 8L6 9L5 9L5 8L2 8L2 9L3 9L3 10L6 10L6 11L7 11L7 12L5 12L5 13L7 13L7 14L6 14L6 15L7 15L7 16L5 16L5 15L4 15L4 14L3 14L3 13L2 13L2 12L1 12L1 10L0 10L0 12L1 12L1 13L0 13L0 15L1 15L1 16L2 16L2 14L3 14L3 16L4 16L4 18L3 18L3 17L2 17L2 18L3 18L3 19L4 19L4 20L6 20L6 21L7 21L7 20L6 20L6 19L7 19L7 18L8 18L8 19L9 19L9 18L8 18L8 15L9 15L9 14L10 14L10 16L9 16L9 17L10 17L10 18L11 18L11 19L10 19L10 20L11 20L11 22L9 22L9 23L8 23L8 24L6 24L6 23L7 23L7 22L6 22L6 23L5 23L5 25L4 25L4 21L3 21L3 20L2 20L2 22L3 22L3 24L2 24L2 23L1 23L1 22L0 22L0 23L1 23L1 24L0 24L0 25L1 25L1 26L3 26L3 27L4 27L4 28L3 28L3 29L1 29L1 28L2 28L2 27L1 27L1 28L0 28L0 29L1 29L1 30L0 30L0 32L1 32L1 33L0 33L0 34L1 34L1 33L4 33L4 32L5 32L5 33L7 33L7 34L5 34L5 37L4 37L4 36L3 36L3 35L1 35L1 37L2 37L2 36L3 36L3 40L2 40L2 38L1 38L1 40L2 40L2 41L3 41L3 42L1 42L1 41L0 41L0 42L1 42L1 43L0 43L0 44L1 44L1 45L0 45L0 48L5 48L5 47L7 47L7 46L9 46L9 45L10 45L10 47L12 47L12 46L11 46L11 45L13 45L13 47L14 47L14 46L15 46L15 48L14 48L14 49L13 49L13 48L12 48L12 49L11 49L11 48L10 48L10 49L8 49L8 48L9 48L9 47L8 47L8 48L6 48L6 49L8 49L8 50L10 50L10 49L11 49L11 50L12 50L12 52L11 52L11 53L10 53L10 52L8 52L8 55L9 55L9 54L10 54L10 57L12 57L12 53L14 53L14 54L13 54L13 55L14 55L14 54L15 54L15 55L17 55L17 53L18 53L18 54L19 54L19 56L18 56L18 57L25 57L25 56L26 56L26 57L30 57L30 56L31 56L31 55L32 55L32 56L33 56L33 55L34 55L34 56L35 56L35 57L36 57L36 55L37 55L37 56L38 56L38 57L39 57L39 56L40 56L40 57L41 57L41 56L42 56L42 55L41 55L41 53L40 53L40 55L38 55L38 54L39 54L39 52L42 52L42 54L43 54L43 56L45 56L45 57L46 57L46 55L47 55L47 54L48 54L48 55L49 55L49 54L48 54L48 53L50 53L50 55L52 55L52 56L48 56L48 57L53 57L53 55L52 55L52 54L53 54L53 52L55 52L55 50L57 50L57 47L56 47L56 46L57 46L57 45L54 45L54 44L55 44L55 42L57 42L57 41L56 41L56 40L57 40L57 39L54 39L54 40L52 40L52 39L53 39L53 38L52 38L52 37L54 37L54 38L57 38L57 36L56 36L56 34L57 34L57 32L56 32L56 30L57 30L57 29L56 29L56 30L55 30L55 29L54 29L54 28L56 28L56 26L57 26L57 25L55 25L55 26L54 26L54 25L52 25L52 24L55 24L55 23L56 23L56 22L57 22L57 19L56 19L56 22L55 22L55 21L54 21L54 22L53 22L53 21L51 21L51 19L52 19L52 20L55 20L55 18L57 18L57 17L56 17L56 14L57 14L57 11L56 11L56 14L55 14L55 13L54 13L54 12L55 12L55 11L54 11L54 12L53 12L53 11L52 11L52 10L50 10L50 11L52 11L52 12L53 12L53 13L51 13L51 12L50 12L50 13L51 13L51 14L49 14L49 13L48 13L48 14L49 14L49 15L48 15L48 16L49 16L49 15L52 15L52 16L53 16L53 17L51 17L51 18L49 18L49 17L48 17L48 18L49 18L49 19L47 19L47 18L44 18L44 17L42 17L42 18L43 18L43 19L44 19L44 20L43 20L43 21L42 21L42 19L40 19L40 18L38 18L38 16L41 16L41 15L42 15L42 16L43 16L43 15L42 15L42 14L43 14L43 13L44 13L44 12L46 12L46 13L47 13L47 12L46 12L46 11L45 11L45 10L46 10L46 9L45 9L45 8L46 8L46 7L47 7L47 8L48 8L48 7L49 7L49 6L48 6L48 7L47 7L47 5L48 5L48 0L45 0L45 1L47 1L47 2L42 2L42 3L43 3L43 4L41 4L41 5L43 5L43 4L44 4L44 3L47 3L47 5L45 5L45 6L44 6L44 7L45 7L45 8L42 8L42 7L43 7L43 6L42 6L42 7L41 7L41 6L40 6L40 8L39 8L39 5L40 5L40 4L39 4L39 3L41 3L41 2L40 2L40 0L39 0L39 1L38 1L38 0L37 0L37 1L38 1L38 4L39 4L39 5L38 5L38 7L37 7L37 6L36 6L36 7L35 7L35 6L34 6L34 8L31 8L31 5L32 5L32 7L33 7L33 5L34 5L34 4L33 4L33 3L34 3L34 2L33 2L33 1L34 1L34 0L32 0L32 1L31 1L31 2L32 2L32 4L25 4L25 6L24 6L24 7L25 7L25 6L26 6L26 9L24 9L24 8L23 8L23 9L22 9L22 8L20 8L20 7L21 7L21 6L22 6L22 7L23 7L23 6L22 6L22 5L23 5L23 4L21 4L21 3L23 3L23 2L24 2L24 3L26 3L26 2L25 2L25 0L24 0L24 1L23 1L23 2L21 2L21 1L22 1L22 0L19 0L19 3L18 3L18 2L17 2L17 1L15 1L15 0L12 0L12 2L11 2L11 0L10 0L10 1L9 1L9 0ZM35 0L35 1L36 1L36 0ZM41 0L41 1L44 1L44 0ZM13 1L13 2L14 2L14 1ZM27 1L27 3L29 3L29 2L30 2L30 1L29 1L29 2L28 2L28 1ZM16 2L16 4L14 4L14 3L13 3L13 4L14 4L14 5L10 5L10 6L9 6L9 7L10 7L10 8L13 8L13 10L11 10L11 11L10 11L10 9L8 9L8 10L9 10L9 11L8 11L8 12L7 12L7 13L8 13L8 14L9 14L9 13L10 13L10 14L11 14L11 15L14 15L14 16L16 16L16 18L17 18L17 17L18 17L18 19L15 19L15 18L14 18L14 19L13 19L13 20L12 20L12 21L13 21L13 20L14 20L14 21L15 21L15 22L12 22L12 23L10 23L10 24L9 24L9 26L10 26L10 27L9 27L9 28L12 28L12 29L11 29L11 33L13 33L13 34L10 34L10 37L9 37L9 33L8 33L8 37L9 37L9 38L10 38L10 40L9 40L9 41L8 41L8 38L7 38L7 37L6 37L6 38L7 38L7 39L6 39L6 40L7 40L7 41L6 41L6 42L3 42L3 45L2 45L2 46L1 46L1 47L2 47L2 46L3 46L3 47L5 47L5 45L6 45L6 46L7 46L7 45L6 45L6 44L8 44L8 45L9 45L9 44L10 44L10 42L11 42L11 44L13 44L13 45L14 45L14 44L15 44L15 43L14 43L14 42L16 42L16 43L17 43L17 44L16 44L16 47L17 47L17 46L18 46L18 45L19 45L19 40L17 40L17 42L16 42L16 41L14 41L14 38L16 38L16 37L17 37L17 39L20 39L20 38L18 38L18 37L17 37L17 35L18 35L18 36L19 36L19 37L21 37L21 40L22 40L22 41L20 41L20 43L21 43L21 44L20 44L20 45L21 45L21 46L20 46L20 47L19 47L19 50L17 50L17 51L16 51L16 49L17 49L17 48L15 48L15 51L14 51L14 52L17 52L17 51L20 51L20 52L19 52L19 53L20 53L20 52L21 52L21 51L22 51L22 52L24 52L24 51L26 51L26 48L29 48L29 46L27 46L27 47L26 47L26 45L25 45L25 44L24 44L24 43L25 43L25 42L24 42L24 41L23 41L23 39L22 39L22 38L24 38L24 40L25 40L25 41L26 41L26 43L27 43L27 42L28 42L28 44L29 44L29 45L31 45L31 44L34 44L34 43L35 43L35 42L36 42L36 41L35 41L35 40L36 40L36 39L35 39L35 38L34 38L34 37L35 37L35 36L34 36L34 35L37 35L37 37L38 37L38 38L37 38L37 40L38 40L38 41L37 41L37 42L38 42L38 43L36 43L36 44L35 44L35 45L34 45L34 46L35 46L35 45L36 45L36 48L35 48L35 49L34 49L34 48L33 48L33 47L30 47L30 48L31 48L31 50L32 50L32 52L31 52L31 53L27 53L27 54L26 54L26 53L25 53L25 55L23 55L23 56L25 56L25 55L26 55L26 56L27 56L27 54L28 54L28 55L29 55L29 56L30 56L30 55L31 55L31 53L32 53L32 55L33 55L33 54L34 54L34 55L36 55L36 51L35 51L35 49L38 49L38 48L37 48L37 47L38 47L38 46L40 46L40 47L41 47L41 44L40 44L40 43L41 43L41 42L42 42L42 43L43 43L43 44L44 44L44 45L43 45L43 46L42 46L42 48L39 48L39 50L37 50L37 53L38 53L38 51L40 51L40 49L41 49L41 51L43 51L43 54L45 54L45 52L44 52L44 51L46 51L46 54L47 54L47 53L48 53L48 50L47 50L47 49L48 49L48 48L47 48L47 49L46 49L46 47L45 47L45 46L47 46L47 47L49 47L49 48L50 48L50 47L52 47L52 48L53 48L53 49L55 49L55 48L54 48L54 47L55 47L55 46L54 46L54 45L52 45L52 44L54 44L54 42L53 42L53 41L52 41L52 43L51 43L51 42L50 42L50 41L51 41L51 37L52 37L52 36L53 36L53 35L55 35L55 34L56 34L56 32L54 32L54 31L52 31L52 32L50 32L50 31L48 31L48 28L47 28L47 27L48 27L48 26L47 26L47 24L48 24L48 25L49 25L49 26L51 26L51 25L50 25L50 23L49 23L49 22L51 22L51 24L52 24L52 22L51 22L51 21L50 21L50 19L49 19L49 20L48 20L48 21L46 21L46 22L44 22L44 21L45 21L45 20L47 20L47 19L45 19L45 20L44 20L44 21L43 21L43 22L41 22L41 20L39 20L39 19L38 19L38 18L36 18L36 19L35 19L35 16L37 16L37 15L38 15L38 14L39 14L39 15L41 15L41 12L42 12L42 13L43 13L43 12L44 12L44 11L43 11L43 10L44 10L44 9L43 9L43 10L42 10L42 9L41 9L41 8L40 8L40 11L41 11L41 12L39 12L39 10L37 10L37 9L38 9L38 8L37 8L37 7L36 7L36 8L37 8L37 9L35 9L35 8L34 8L34 9L32 9L32 10L31 10L31 9L28 9L28 10L27 10L27 9L26 9L26 10L24 10L24 9L23 9L23 10L24 10L24 11L23 11L23 12L24 12L24 13L22 13L22 11L21 11L21 13L22 13L22 15L20 15L20 14L17 14L17 13L20 13L20 10L22 10L22 9L20 9L20 8L19 8L19 7L20 7L20 6L21 6L21 5L20 5L20 6L19 6L19 7L18 7L18 5L19 5L19 4L20 4L20 3L21 3L21 2L20 2L20 3L19 3L19 4L18 4L18 3L17 3L17 2ZM35 2L35 5L36 5L36 3L37 3L37 2ZM11 3L11 4L12 4L12 3ZM32 4L32 5L33 5L33 4ZM14 5L14 7L15 7L15 8L14 8L14 9L15 9L15 8L16 8L16 9L17 9L17 11L16 11L16 10L15 10L15 11L14 11L14 10L13 10L13 11L12 11L12 12L10 12L10 13L12 13L12 12L13 12L13 13L14 13L14 15L16 15L16 16L20 16L20 19L19 19L19 20L21 20L21 21L19 21L19 22L20 22L20 23L17 23L17 22L18 22L18 20L17 20L17 21L16 21L16 22L15 22L15 23L14 23L14 24L13 24L13 23L12 23L12 25L13 25L13 26L11 26L11 27L12 27L12 28L13 28L13 26L14 26L14 27L15 27L15 28L16 28L16 30L14 30L14 31L12 31L12 32L13 32L13 33L14 33L14 35L12 35L12 37L10 37L10 38L12 38L12 37L13 37L13 38L14 38L14 36L15 36L15 37L16 37L16 36L15 36L15 33L16 33L16 34L17 34L17 31L16 31L16 30L17 30L17 29L18 29L18 32L19 32L19 33L18 33L18 34L19 34L19 33L20 33L20 35L19 35L19 36L21 36L21 37L22 37L22 36L24 36L24 37L25 37L25 40L26 40L26 41L28 41L28 42L29 42L29 44L30 44L30 42L29 42L29 41L28 41L28 40L29 40L29 39L30 39L30 40L32 40L32 41L31 41L31 43L33 43L33 41L34 41L34 40L35 40L35 39L31 39L31 38L30 38L30 37L32 37L32 38L33 38L33 37L34 37L34 36L32 36L32 35L34 35L34 34L36 34L36 33L37 33L37 35L40 35L40 36L42 36L42 37L40 37L40 38L38 38L38 39L39 39L39 43L40 43L40 40L41 40L41 41L42 41L42 42L44 42L44 41L42 41L42 40L44 40L44 39L45 39L45 38L44 38L44 36L45 36L45 35L47 35L47 34L45 34L45 35L44 35L44 34L43 34L43 33L44 33L44 32L45 32L45 33L46 33L46 32L45 32L45 31L47 31L47 32L48 32L48 31L47 31L47 30L46 30L46 29L47 29L47 28L46 28L46 27L47 27L47 26L46 26L46 25L43 25L43 23L42 23L42 24L41 24L41 25L42 25L42 26L41 26L41 27L40 27L40 26L37 26L37 24L34 24L34 23L33 23L33 22L35 22L35 20L34 20L34 21L33 21L33 18L34 18L34 16L35 16L35 15L36 15L36 13L35 13L35 14L33 14L33 13L34 13L34 12L38 12L38 11L37 11L37 10L36 10L36 11L35 11L35 9L34 9L34 10L33 10L33 11L29 11L29 12L28 12L28 11L27 11L27 12L26 12L26 11L25 11L25 12L26 12L26 13L27 13L27 15L26 15L26 14L25 14L25 13L24 13L24 14L23 14L23 15L22 15L22 16L20 16L20 15L17 15L17 14L15 14L15 13L17 13L17 11L18 11L18 10L19 10L19 8L17 8L17 6L16 6L16 5ZM27 5L27 8L30 8L30 5ZM10 6L10 7L11 7L11 6ZM12 6L12 7L13 7L13 6ZM15 6L15 7L16 7L16 6ZM28 6L28 7L29 7L29 6ZM45 6L45 7L46 7L46 6ZM49 8L49 9L47 9L47 11L48 11L48 12L49 12L49 9L52 9L52 8ZM54 8L54 9L56 9L56 10L57 10L57 8ZM6 9L6 10L7 10L7 9ZM41 10L41 11L42 11L42 12L43 12L43 11L42 11L42 10ZM13 11L13 12L14 12L14 13L15 13L15 12L16 12L16 11L15 11L15 12L14 12L14 11ZM8 12L8 13L9 13L9 12ZM29 12L29 13L28 13L28 14L29 14L29 15L28 15L28 17L26 17L26 18L28 18L28 17L29 17L29 15L32 15L32 17L30 17L30 19L27 19L27 20L26 20L26 19L25 19L25 18L23 18L23 17L24 17L24 16L25 16L25 15L23 15L23 16L22 16L22 21L21 21L21 23L20 23L20 24L19 24L19 25L20 25L20 26L18 26L18 25L16 25L16 24L14 24L14 25L16 25L16 26L15 26L15 27L17 27L17 28L18 28L18 29L19 29L19 27L20 27L20 28L21 28L21 29L22 29L22 31L24 31L24 30L25 30L25 33L24 33L24 34L23 34L23 32L21 32L21 31L20 31L20 30L19 30L19 32L20 32L20 33L22 33L22 34L23 34L23 35L24 35L24 34L25 34L25 33L26 33L26 26L27 26L27 25L26 25L26 26L25 26L25 27L24 27L24 26L23 26L23 25L25 25L25 24L26 24L26 23L24 23L24 24L22 24L22 22L24 22L24 21L26 21L26 22L28 22L28 20L30 20L30 21L29 21L29 22L30 22L30 23L29 23L29 24L28 24L28 23L27 23L27 24L28 24L28 26L36 26L36 25L33 25L33 23L32 23L32 22L33 22L33 21L31 21L31 18L32 18L32 17L33 17L33 16L34 16L34 15L32 15L32 13L33 13L33 12L32 12L32 13L31 13L31 12ZM30 13L30 14L31 14L31 13ZM39 13L39 14L40 14L40 13ZM44 14L44 16L45 16L45 17L46 17L46 16L45 16L45 15L47 15L47 14ZM52 14L52 15L53 15L53 14ZM54 16L54 18L55 18L55 16ZM0 17L0 19L1 19L1 17ZM5 17L5 18L7 18L7 17ZM11 17L11 18L13 18L13 17ZM52 18L52 19L53 19L53 18ZM14 19L14 20L15 20L15 19ZM24 19L24 20L23 20L23 21L24 21L24 20L25 20L25 19ZM36 19L36 21L38 21L38 19ZM0 20L0 21L1 21L1 20ZM8 20L8 21L9 21L9 20ZM30 21L30 22L31 22L31 21ZM48 21L48 22L46 22L46 24L47 24L47 23L48 23L48 24L49 24L49 23L48 23L48 22L49 22L49 21ZM36 22L36 23L37 23L37 22ZM38 22L38 23L41 23L41 22ZM54 22L54 23L55 23L55 22ZM31 23L31 24L32 24L32 23ZM44 23L44 24L45 24L45 23ZM20 24L20 25L21 25L21 26L20 26L20 27L21 27L21 28L22 28L22 29L24 29L24 27L23 27L23 28L22 28L22 27L21 27L21 26L22 26L22 25L21 25L21 24ZM29 24L29 25L30 25L30 24ZM39 24L39 25L40 25L40 24ZM5 25L5 26L8 26L8 25ZM43 26L43 30L45 30L45 28L44 28L44 27L46 27L46 26ZM53 26L53 27L54 27L54 26ZM5 27L5 30L8 30L8 27ZM27 27L27 30L30 30L30 27ZM31 27L31 28L32 28L32 29L31 29L31 30L32 30L32 31L30 31L30 32L32 32L32 34L31 34L31 33L29 33L29 34L28 34L28 33L27 33L27 35L25 35L25 36L26 36L26 37L28 37L28 39L27 39L27 38L26 38L26 39L27 39L27 40L28 40L28 39L29 39L29 36L30 36L30 35L32 35L32 34L33 34L33 33L34 33L34 29L35 29L35 28L34 28L34 27L33 27L33 28L32 28L32 27ZM39 27L39 28L40 28L40 29L42 29L42 28L40 28L40 27ZM49 27L49 30L52 30L52 27ZM6 28L6 29L7 29L7 28ZM28 28L28 29L29 29L29 28ZM36 28L36 30L35 30L35 33L36 33L36 31L37 31L37 32L38 32L38 34L39 34L39 33L42 33L42 32L44 32L44 31L42 31L42 32L40 32L40 31L41 31L41 30L40 30L40 31L38 31L38 30L39 30L39 29L38 29L38 30L37 30L37 28ZM50 28L50 29L51 29L51 28ZM3 29L3 30L4 30L4 29ZM12 29L12 30L13 30L13 29ZM53 29L53 30L54 30L54 29ZM9 30L9 31L10 31L10 30ZM1 31L1 32L3 32L3 31ZM5 31L5 32L7 32L7 31ZM15 31L15 32L16 32L16 31ZM28 31L28 32L29 32L29 31ZM49 32L49 33L50 33L50 32ZM52 32L52 33L51 33L51 34L52 34L52 35L51 35L51 36L50 36L50 34L48 34L48 35L49 35L49 36L47 36L47 38L46 38L46 40L45 40L45 41L46 41L46 42L45 42L45 43L44 43L44 44L45 44L45 43L46 43L46 42L47 42L47 43L50 43L50 44L48 44L48 45L47 45L47 46L49 46L49 45L51 45L51 46L52 46L52 45L51 45L51 43L50 43L50 42L48 42L48 41L47 41L47 40L48 40L48 39L49 39L49 38L50 38L50 37L51 37L51 36L52 36L52 35L53 35L53 34L54 34L54 32ZM52 33L52 34L53 34L53 33ZM29 34L29 35L28 35L28 36L29 36L29 35L30 35L30 34ZM40 34L40 35L41 35L41 34ZM6 35L6 36L7 36L7 35ZM21 35L21 36L22 36L22 35ZM38 36L38 37L39 37L39 36ZM54 36L54 37L55 37L55 36ZM48 37L48 38L49 38L49 37ZM4 38L4 39L5 39L5 38ZM40 38L40 39L41 39L41 40L42 40L42 39L44 39L44 38ZM12 39L12 40L10 40L10 41L9 41L9 42L10 42L10 41L12 41L12 42L13 42L13 39ZM3 40L3 41L5 41L5 40ZM54 40L54 41L55 41L55 40ZM7 41L7 42L6 42L6 43L4 43L4 44L6 44L6 43L7 43L7 42L8 42L8 41ZM22 41L22 42L23 42L23 41ZM8 43L8 44L9 44L9 43ZM56 43L56 44L57 44L57 43ZM17 44L17 45L18 45L18 44ZM23 44L23 48L22 48L22 49L21 49L21 50L22 50L22 51L23 51L23 50L22 50L22 49L25 49L25 48L26 48L26 47L25 47L25 45L24 45L24 44ZM36 44L36 45L37 45L37 46L38 46L38 45L39 45L39 44ZM3 45L3 46L4 46L4 45ZM21 46L21 47L20 47L20 48L21 48L21 47L22 47L22 46ZM43 46L43 47L44 47L44 48L42 48L42 50L44 50L44 48L45 48L45 47L44 47L44 46ZM24 47L24 48L25 48L25 47ZM27 49L27 52L30 52L30 49ZM32 49L32 50L33 50L33 49ZM49 49L49 52L52 52L52 49ZM28 50L28 51L29 51L29 50ZM46 50L46 51L47 51L47 50ZM50 50L50 51L51 51L51 50ZM33 51L33 53L35 53L35 51ZM56 51L56 52L57 52L57 51ZM15 53L15 54L16 54L16 53ZM23 53L23 54L24 54L24 53ZM29 54L29 55L30 55L30 54ZM54 54L54 56L55 56L55 57L56 57L56 56L55 56L55 54ZM20 55L20 56L22 56L22 55ZM40 55L40 56L41 56L41 55ZM13 56L13 57L14 57L14 56ZM16 56L16 57L17 57L17 56ZM0 0L0 7L7 7L7 0ZM1 1L1 6L6 6L6 1ZM2 2L2 5L5 5L5 2ZM50 0L50 7L57 7L57 0ZM51 1L51 6L56 6L56 1ZM52 2L52 5L55 5L55 2ZM0 50L0 57L7 57L7 50ZM1 51L1 56L6 56L6 51ZM2 52L2 55L5 55L5 52Z" fill="#000000"/></g></g></svg>
