<?xml version="1.0" encoding="UTF-8"?>
<svg xmlns="http://www.w3.org/2000/svg" version="1.1" width="200" height="200" viewBox="0 0 200 200"><rect x="0" y="0" width="200" height="200" fill="#ffffff"/><g transform="scale(3.509)"><g transform="translate(0,0)"><path fill-rule="evenodd" d="M10 0L10 2L11 2L11 4L10 4L10 3L9 3L9 4L8 4L8 5L9 5L9 6L8 6L8 8L6 8L6 9L4 9L4 8L2 8L2 9L4 9L4 10L2 10L2 11L1 11L1 10L0 10L0 11L1 11L1 12L2 12L2 13L1 13L1 15L0 15L0 17L1 17L1 18L2 18L2 19L4 19L4 20L2 20L2 23L1 23L1 20L0 20L0 24L2 24L2 25L1 25L1 26L0 26L0 28L2 28L2 27L1 27L1 26L2 26L2 25L3 25L3 26L4 26L4 28L3 28L3 29L4 29L4 30L3 30L3 31L2 31L2 29L1 29L1 31L0 31L0 34L1 34L1 31L2 31L2 35L1 35L1 37L2 37L2 36L3 36L3 37L4 37L4 36L5 36L5 35L4 35L4 34L5 34L5 32L4 32L4 34L3 34L3 31L7 31L7 32L6 32L6 33L7 33L7 34L6 34L6 35L7 35L7 36L6 36L6 37L7 37L7 38L5 38L5 39L7 39L7 40L6 40L6 41L7 41L7 40L8 40L8 42L6 42L6 43L8 43L8 44L5 44L5 41L4 41L4 42L3 42L3 41L2 41L2 40L0 40L0 42L1 42L1 43L0 43L0 45L2 45L2 47L1 47L1 46L0 46L0 48L5 48L5 47L8 47L8 48L6 48L6 49L8 49L8 51L9 51L9 53L8 53L8 55L9 55L9 54L10 54L10 51L11 51L11 52L12 52L12 53L14 53L14 54L11 54L11 55L10 55L10 57L11 57L11 56L12 56L12 57L16 57L16 56L17 56L17 57L19 57L19 56L18 56L18 55L20 55L20 54L21 54L21 53L22 53L22 55L21 55L21 57L22 57L22 56L23 56L23 57L24 57L24 56L25 56L25 57L28 57L28 56L25 56L25 55L26 55L26 54L25 54L25 52L26 52L26 53L27 53L27 54L28 54L28 55L29 55L29 56L31 56L31 51L32 51L32 52L34 52L34 50L32 50L32 49L33 49L33 48L34 48L34 46L35 46L35 45L34 45L34 46L33 46L33 45L32 45L32 44L31 44L31 43L30 43L30 42L29 42L29 41L26 41L26 40L30 40L30 41L32 41L32 43L34 43L34 44L36 44L36 47L35 47L35 50L36 50L36 51L37 51L37 52L36 52L36 53L37 53L37 52L38 52L38 54L40 54L40 55L38 55L38 56L37 56L37 54L35 54L35 55L34 55L34 54L33 54L33 53L32 53L32 54L33 54L33 56L32 56L32 57L33 57L33 56L34 56L34 57L35 57L35 55L36 55L36 56L37 56L37 57L39 57L39 56L40 56L40 57L42 57L42 55L41 55L41 54L42 54L42 53L43 53L43 57L44 57L44 55L47 55L47 56L46 56L46 57L47 57L47 56L49 56L49 54L50 54L50 57L51 57L51 56L53 56L53 55L54 55L54 54L53 54L53 55L52 55L52 54L51 54L51 53L55 53L55 54L56 54L56 53L57 53L57 51L56 51L56 49L57 49L57 45L56 45L56 44L54 44L54 42L53 42L53 40L52 40L52 39L49 39L49 37L47 37L47 39L49 39L49 40L50 40L50 41L48 41L48 40L47 40L47 41L46 41L46 39L45 39L45 38L46 38L46 37L44 37L44 36L46 36L46 35L48 35L48 34L46 34L46 35L45 35L45 34L43 34L43 33L41 33L41 31L42 31L42 32L43 32L43 31L45 31L45 33L47 33L47 32L46 32L46 31L47 31L47 29L48 29L48 33L49 33L49 31L53 31L53 35L51 35L51 34L52 34L52 32L50 32L50 34L49 34L49 35L50 35L50 36L52 36L52 37L53 37L53 38L54 38L54 41L55 41L55 39L56 39L56 37L57 37L57 36L55 36L55 38L54 38L54 35L57 35L57 33L56 33L56 32L57 32L57 31L56 31L56 30L57 30L57 27L54 27L54 26L55 26L55 25L54 25L54 23L53 23L53 25L52 25L52 22L51 22L51 23L50 23L50 22L49 22L49 21L53 21L53 19L55 19L55 17L56 17L56 18L57 18L57 16L56 16L56 15L54 15L54 14L53 14L53 13L54 13L54 12L53 12L53 13L52 13L52 15L51 15L51 12L52 12L52 10L51 10L51 12L50 12L50 11L49 11L49 9L51 9L51 8L49 8L49 6L48 6L48 8L47 8L47 5L48 5L48 0L46 0L46 1L44 1L44 0L39 0L39 1L41 1L41 2L43 2L43 1L44 1L44 3L43 3L43 4L44 4L44 5L42 5L42 8L41 8L41 5L39 5L39 3L38 3L38 0L37 0L37 1L36 1L36 2L37 2L37 3L38 3L38 8L40 8L40 9L39 9L39 10L37 10L37 11L39 11L39 10L40 10L40 9L42 9L42 11L43 11L43 13L44 13L44 14L46 14L46 13L47 13L47 14L48 14L48 13L47 13L47 12L48 12L48 11L49 11L49 12L50 12L50 15L51 15L51 16L50 16L50 17L49 17L49 15L48 15L48 16L47 16L47 17L45 17L45 15L43 15L43 14L39 14L39 13L38 13L38 14L37 14L37 15L35 15L35 14L36 14L36 13L35 13L35 14L34 14L34 12L33 12L33 14L34 14L34 15L35 15L35 16L34 16L34 17L33 17L33 16L32 16L32 17L30 17L30 18L28 18L28 17L27 17L27 16L28 16L28 15L26 15L26 14L27 14L27 13L28 13L28 12L30 12L30 13L31 13L31 15L30 15L30 16L31 16L31 15L32 15L32 13L31 13L31 12L30 12L30 9L32 9L32 8L33 8L33 9L36 9L36 8L37 8L37 6L36 6L36 7L35 7L35 6L34 6L34 5L37 5L37 4L36 4L36 3L35 3L35 2L34 2L34 1L35 1L35 0L33 0L33 2L32 2L32 0L28 0L28 1L27 1L27 0L24 0L24 1L22 1L22 0L21 0L21 1L22 1L22 2L21 2L21 3L19 3L19 2L20 2L20 1L18 1L18 0L15 0L15 1L14 1L14 0L13 0L13 1L11 1L11 0ZM15 1L15 2L14 2L14 4L15 4L15 5L14 5L14 6L13 6L13 7L12 7L12 5L13 5L13 3L12 3L12 5L10 5L10 6L9 6L9 7L10 7L10 6L11 6L11 7L12 7L12 8L13 8L13 7L14 7L14 8L15 8L15 9L17 9L17 8L18 8L18 10L20 10L20 11L17 11L17 10L16 10L16 11L17 11L17 12L13 12L13 11L11 11L11 10L12 10L12 9L11 9L11 10L10 10L10 8L9 8L9 9L8 9L8 10L7 10L7 9L6 9L6 10L5 10L5 11L6 11L6 12L4 12L4 11L2 11L2 12L3 12L3 13L2 13L2 16L1 16L1 17L3 17L3 18L4 18L4 19L5 19L5 18L7 18L7 19L6 19L6 20L4 20L4 21L3 21L3 23L2 23L2 24L3 24L3 25L4 25L4 26L5 26L5 25L4 25L4 24L5 24L5 23L6 23L6 24L8 24L8 25L6 25L6 26L8 26L8 25L9 25L9 27L10 27L10 29L9 29L9 30L12 30L12 31L11 31L11 32L12 32L12 33L10 33L10 31L9 31L9 32L7 32L7 33L8 33L8 34L7 34L7 35L8 35L8 34L9 34L9 33L10 33L10 34L11 34L11 35L10 35L10 36L11 36L11 35L14 35L14 34L16 34L16 36L15 36L15 37L16 37L16 36L17 36L17 33L14 33L14 32L17 32L17 31L16 31L16 30L17 30L17 29L18 29L18 25L19 25L19 26L20 26L20 27L19 27L19 28L20 28L20 27L21 27L21 29L20 29L20 30L18 30L18 33L19 33L19 32L20 32L20 31L21 31L21 29L23 29L23 31L24 31L24 32L25 32L25 31L26 31L26 32L27 32L27 31L26 31L26 30L25 30L25 29L26 29L26 27L25 27L25 28L24 28L24 26L27 26L27 25L29 25L29 26L30 26L30 25L31 25L31 29L32 29L32 31L31 31L31 32L30 32L30 35L29 35L29 36L30 36L30 37L29 37L29 38L30 38L30 37L32 37L32 38L31 38L31 40L32 40L32 41L33 41L33 40L34 40L34 39L33 39L33 37L35 37L35 39L37 39L37 38L38 38L38 36L37 36L37 35L39 35L39 33L40 33L40 34L41 34L41 35L40 35L40 36L39 36L39 37L41 37L41 40L37 40L37 44L38 44L38 43L41 43L41 44L42 44L42 45L44 45L44 46L45 46L45 47L46 47L46 48L44 48L44 47L42 47L42 46L41 46L41 45L38 45L38 46L37 46L37 47L36 47L36 48L37 48L37 47L38 47L38 49L36 49L36 50L37 50L37 51L38 51L38 52L39 52L39 50L38 50L38 49L42 49L42 50L40 50L40 51L42 51L42 52L40 52L40 54L41 54L41 53L42 53L42 52L43 52L43 53L44 53L44 54L46 54L46 53L44 53L44 51L45 51L45 52L48 52L48 51L47 51L47 50L48 50L48 48L49 48L49 47L50 47L50 46L51 46L51 45L50 45L50 44L51 44L51 42L52 42L52 47L51 47L51 48L52 48L52 47L53 47L53 50L54 50L54 51L55 51L55 53L56 53L56 51L55 51L55 50L54 50L54 49L55 49L55 48L56 48L56 47L53 47L53 46L54 46L54 45L53 45L53 42L52 42L52 40L51 40L51 42L50 42L50 43L49 43L49 44L47 44L47 43L48 43L48 41L47 41L47 42L46 42L46 41L45 41L45 39L43 39L43 40L42 40L42 38L43 38L43 37L42 37L42 36L44 36L44 35L43 35L43 34L41 34L41 33L40 33L40 31L41 31L41 30L40 30L40 29L41 29L41 28L38 28L38 29L37 29L37 27L38 27L38 25L39 25L39 26L40 26L40 27L43 27L43 28L42 28L42 30L43 30L43 29L44 29L44 30L46 30L46 28L47 28L47 27L48 27L48 26L50 26L50 24L49 24L49 23L48 23L48 21L47 21L47 20L52 20L52 19L49 19L49 17L47 17L47 19L46 19L46 20L45 20L45 18L44 18L44 17L43 17L43 16L42 16L42 17L41 17L41 16L40 16L40 17L41 17L41 18L40 18L40 19L39 19L39 20L36 20L36 21L35 21L35 18L34 18L34 19L32 19L32 20L30 20L30 19L31 19L31 18L30 18L30 19L26 19L26 20L25 20L25 19L24 19L24 21L22 21L22 22L21 22L21 24L22 24L22 25L23 25L23 24L24 24L24 23L23 23L23 24L22 24L22 22L25 22L25 21L26 21L26 23L25 23L25 24L26 24L26 23L27 23L27 25L24 25L24 26L22 26L22 27L21 27L21 26L20 26L20 21L21 21L21 20L23 20L23 19L22 19L22 17L23 17L23 18L25 18L25 16L26 16L26 15L24 15L24 17L23 17L23 16L22 16L22 15L23 15L23 14L24 14L24 11L25 11L25 10L27 10L27 11L26 11L26 12L27 12L27 11L28 11L28 10L27 10L27 9L25 9L25 8L24 8L24 9L25 9L25 10L23 10L23 7L24 7L24 6L25 6L25 7L26 7L26 6L25 6L25 5L26 5L26 4L29 4L29 3L28 3L28 2L27 2L27 1L26 1L26 2L27 2L27 3L26 3L26 4L24 4L24 5L23 5L23 4L20 4L20 5L21 5L21 7L20 7L20 6L19 6L19 3L18 3L18 2L17 2L17 3L15 3L15 2L16 2L16 1ZM46 1L46 2L45 2L45 3L44 3L44 4L46 4L46 5L44 5L44 6L43 6L43 7L44 7L44 6L45 6L45 7L46 7L46 5L47 5L47 3L46 3L46 2L47 2L47 1ZM23 2L23 3L24 3L24 2ZM30 2L30 3L31 3L31 7L32 7L32 6L33 6L33 7L34 7L34 6L33 6L33 5L32 5L32 4L34 4L34 2L33 2L33 3L31 3L31 2ZM16 4L16 5L15 5L15 6L14 6L14 7L15 7L15 8L16 8L16 7L17 7L17 6L18 6L18 8L19 8L19 9L20 9L20 10L21 10L21 11L22 11L22 12L20 12L20 13L19 13L19 14L18 14L18 12L17 12L17 13L16 13L16 14L17 14L17 15L18 15L18 16L19 16L19 19L21 19L21 17L20 17L20 16L21 16L21 15L22 15L22 14L21 14L21 13L22 13L22 12L23 12L23 10L22 10L22 9L21 9L21 8L22 8L22 7L23 7L23 5L22 5L22 7L21 7L21 8L20 8L20 7L19 7L19 6L18 6L18 5L17 5L17 4ZM16 5L16 6L15 6L15 7L16 7L16 6L17 6L17 5ZM27 5L27 8L30 8L30 5ZM28 6L28 7L29 7L29 6ZM39 6L39 7L40 7L40 6ZM42 8L42 9L43 9L43 8ZM44 8L44 10L43 10L43 11L44 11L44 10L45 10L45 12L44 12L44 13L46 13L46 11L48 11L48 10L46 10L46 9L47 9L47 8ZM52 8L52 9L53 9L53 8ZM13 9L13 10L14 10L14 11L15 11L15 10L14 10L14 9ZM56 9L56 11L55 11L55 10L53 10L53 11L55 11L55 12L56 12L56 13L57 13L57 9ZM6 10L6 11L7 11L7 10ZM8 10L8 11L9 11L9 10ZM31 10L31 11L32 11L32 10ZM33 10L33 11L34 11L34 10ZM10 11L10 12L9 12L9 13L8 13L8 12L6 12L6 13L8 13L8 14L9 14L9 15L8 15L8 16L6 16L6 17L8 17L8 19L12 19L12 20L14 20L14 19L12 19L12 17L13 17L13 18L14 18L14 17L13 17L13 16L12 16L12 17L11 17L11 15L12 15L12 13L13 13L13 12L12 12L12 13L10 13L10 12L11 12L11 11ZM35 11L35 12L36 12L36 11ZM41 12L41 13L42 13L42 12ZM3 13L3 17L5 17L5 15L7 15L7 14L5 14L5 15L4 15L4 13ZM9 13L9 14L10 14L10 13ZM25 13L25 14L26 14L26 13ZM13 14L13 15L14 15L14 16L15 16L15 18L16 18L16 19L15 19L15 20L16 20L16 23L17 23L17 24L16 24L16 25L15 25L15 26L16 26L16 28L15 28L15 27L14 27L14 26L13 26L13 27L12 27L12 26L10 26L10 27L11 27L11 28L14 28L14 29L12 29L12 30L13 30L13 31L12 31L12 32L14 32L14 31L15 31L15 30L16 30L16 29L17 29L17 26L16 26L16 25L18 25L18 24L19 24L19 21L18 21L18 20L17 20L17 19L18 19L18 18L17 18L17 16L15 16L15 15L14 15L14 14ZM35 16L35 17L36 17L36 18L37 18L37 19L38 19L38 18L39 18L39 17L36 17L36 16ZM51 16L51 17L50 17L50 18L52 18L52 17L53 17L53 18L54 18L54 16ZM26 17L26 18L27 18L27 17ZM40 19L40 20L39 20L39 21L41 21L41 22L40 22L40 26L41 26L41 24L46 24L46 23L47 23L47 22L46 22L46 21L44 21L44 23L43 23L43 21L41 21L41 20L43 20L43 19ZM6 20L6 21L4 21L4 23L3 23L3 24L4 24L4 23L5 23L5 22L6 22L6 23L7 23L7 22L6 22L6 21L8 21L8 22L10 22L10 23L8 23L8 24L9 24L9 25L10 25L10 23L11 23L11 24L12 24L12 23L13 23L13 25L14 25L14 21L13 21L13 22L10 22L10 21L11 21L11 20L10 20L10 21L8 21L8 20ZM26 20L26 21L27 21L27 20ZM28 20L28 21L29 21L29 22L27 22L27 23L29 23L29 25L30 25L30 23L31 23L31 24L32 24L32 26L34 26L34 25L33 25L33 23L34 23L34 24L35 24L35 23L36 23L36 22L35 22L35 21L34 21L34 22L33 22L33 20L32 20L32 23L31 23L31 21L30 21L30 20ZM54 20L54 22L55 22L55 24L56 24L56 23L57 23L57 20ZM17 21L17 22L18 22L18 21ZM55 21L55 22L56 22L56 21ZM29 22L29 23L30 23L30 22ZM34 22L34 23L35 23L35 22ZM37 23L37 24L38 24L38 23ZM47 24L47 25L48 25L48 24ZM42 25L42 26L43 26L43 25ZM44 25L44 26L45 26L45 27L44 27L44 29L45 29L45 28L46 28L46 26L45 26L45 25ZM51 25L51 26L52 26L52 25ZM53 25L53 26L54 26L54 25ZM5 27L5 30L8 30L8 27ZM27 27L27 30L30 30L30 27ZM35 27L35 30L34 30L34 31L32 31L32 32L33 32L33 33L32 33L32 36L33 36L33 33L34 33L34 35L35 35L35 36L36 36L36 35L37 35L37 34L38 34L38 32L39 32L39 30L38 30L38 32L37 32L37 30L36 30L36 27ZM49 27L49 30L52 30L52 27ZM6 28L6 29L7 29L7 28ZM28 28L28 29L29 29L29 28ZM32 28L32 29L34 29L34 28ZM50 28L50 29L51 29L51 28ZM53 28L53 30L56 30L56 28L55 28L55 29L54 29L54 28ZM14 29L14 30L15 30L15 29ZM34 31L34 33L36 33L36 34L35 34L35 35L36 35L36 34L37 34L37 33L36 33L36 31ZM54 31L54 32L55 32L55 31ZM28 32L28 34L27 34L27 35L28 35L28 34L29 34L29 32ZM12 33L12 34L13 34L13 33ZM21 33L21 35L20 35L20 37L21 37L21 38L19 38L19 34L18 34L18 37L17 37L17 38L16 38L16 39L17 39L17 41L18 41L18 42L19 42L19 44L20 44L20 45L18 45L18 44L16 44L16 47L14 47L14 48L13 48L13 46L12 46L12 47L10 47L10 48L9 48L9 50L11 50L11 51L12 51L12 52L13 52L13 51L14 51L14 52L16 52L16 51L14 51L14 50L16 50L16 49L17 49L17 50L18 50L18 49L17 49L17 47L20 47L20 46L21 46L21 45L22 45L22 44L23 44L23 46L22 46L22 47L21 47L21 48L22 48L22 47L23 47L23 49L20 49L20 50L19 50L19 51L20 51L20 50L21 50L21 51L22 51L22 52L23 52L23 51L25 51L25 50L26 50L26 49L25 49L25 48L31 48L31 49L32 49L32 47L33 47L33 46L31 46L31 44L30 44L30 45L29 45L29 43L28 43L28 42L27 42L27 43L26 43L26 41L24 41L24 40L23 40L23 38L24 38L24 37L25 37L25 40L26 40L26 39L27 39L27 37L25 37L25 34L26 34L26 33L25 33L25 34L24 34L24 33ZM54 33L54 34L56 34L56 33ZM22 34L22 36L23 36L23 34ZM30 35L30 36L31 36L31 35ZM41 35L41 36L42 36L42 35ZM7 36L7 37L8 37L8 38L7 38L7 39L8 39L8 40L9 40L9 42L10 42L10 43L9 43L9 45L13 45L13 44L14 44L14 46L15 46L15 44L14 44L14 43L13 43L13 44L12 44L12 42L10 42L10 40L11 40L11 41L14 41L14 40L13 40L13 39L14 39L14 38L13 38L13 37L12 37L12 38L11 38L11 37L10 37L10 38L11 38L11 39L9 39L9 36ZM36 37L36 38L37 38L37 37ZM0 38L0 39L3 39L3 40L4 40L4 38ZM21 38L21 39L22 39L22 38ZM39 38L39 39L40 39L40 38ZM11 39L11 40L12 40L12 39ZM19 39L19 40L18 40L18 41L19 41L19 42L20 42L20 43L21 43L21 44L22 44L22 41L23 41L23 44L24 44L24 41L23 41L23 40L22 40L22 41L21 41L21 40L20 40L20 39ZM19 40L19 41L20 41L20 40ZM41 40L41 41L40 41L40 42L41 42L41 43L42 43L42 42L41 42L41 41L42 41L42 40ZM43 40L43 44L44 44L44 43L45 43L45 45L47 45L47 46L46 46L46 47L47 47L47 48L46 48L46 49L44 49L44 48L43 48L43 50L42 50L42 51L43 51L43 50L45 50L45 51L46 51L46 49L47 49L47 48L48 48L48 47L49 47L49 45L47 45L47 44L46 44L46 43L45 43L45 41L44 41L44 40ZM38 41L38 42L39 42L39 41ZM56 41L56 42L57 42L57 41ZM15 42L15 43L16 43L16 42ZM35 42L35 43L36 43L36 42ZM1 43L1 44L2 44L2 45L4 45L4 46L3 46L3 47L5 47L5 45L4 45L4 44L3 44L3 43ZM10 43L10 44L11 44L11 43ZM25 43L25 44L26 44L26 43ZM27 43L27 45L28 45L28 46L27 46L27 47L29 47L29 45L28 45L28 43ZM6 45L6 46L7 46L7 45ZM24 45L24 46L23 46L23 47L24 47L24 46L25 46L25 47L26 47L26 45ZM10 48L10 49L11 49L11 50L12 50L12 51L13 51L13 50L14 50L14 49L13 49L13 48L12 48L12 49L11 49L11 48ZM15 48L15 49L16 49L16 48ZM12 49L12 50L13 50L13 49ZM23 49L23 50L22 50L22 51L23 51L23 50L24 50L24 49ZM27 49L27 52L30 52L30 49ZM49 49L49 52L52 52L52 49ZM28 50L28 51L29 51L29 50ZM50 50L50 51L51 51L51 50ZM15 53L15 54L16 54L16 55L15 55L15 56L16 56L16 55L18 55L18 54L20 54L20 53L17 53L17 54L16 54L16 53ZM23 53L23 55L25 55L25 54L24 54L24 53ZM29 54L29 55L30 55L30 54ZM47 54L47 55L48 55L48 54ZM40 55L40 56L41 56L41 55ZM56 55L56 56L57 56L57 55ZM54 56L54 57L55 57L55 56ZM0 0L0 7L7 7L7 0ZM1 1L1 6L6 6L6 1ZM2 2L2 5L5 5L5 2ZM50 0L50 7L57 7L57 0ZM51 1L51 6L56 6L56 1ZM52 2L52 5L55 5L55 2ZM0 50L0 57L7 57L7 50ZM1 51L1 56L6 56L6 51ZM2 52L2 55L5 55L5 52Z" fill="#000000"/></g></g></svg>
