<?xml version="1.0" encoding="UTF-8"?>
<svg xmlns="http://www.w3.org/2000/svg" version="1.1" width="200" height="200" viewBox="0 0 200 200"><rect x="0" y="0" width="200" height="200" fill="#ffffff"/><g transform="scale(3.509)"><g transform="translate(0,0)"><path fill-rule="evenodd" d="M10 0L10 1L9 1L9 2L10 2L10 3L9 3L9 4L8 4L8 5L10 5L10 7L9 7L9 6L8 6L8 8L6 8L6 9L8 9L8 13L9 13L9 14L8 14L8 15L7 15L7 14L5 14L5 13L4 13L4 12L6 12L6 13L7 13L7 12L6 12L6 11L7 11L7 10L6 10L6 11L5 11L5 9L4 9L4 8L2 8L2 10L4 10L4 11L0 11L0 12L1 12L1 13L0 13L0 14L1 14L1 15L3 15L3 16L5 16L5 15L7 15L7 16L6 16L6 17L9 17L9 18L8 18L8 19L9 19L9 21L8 21L8 20L6 20L6 19L7 19L7 18L6 18L6 19L4 19L4 17L2 17L2 16L1 16L1 17L0 17L0 18L2 18L2 19L4 19L4 20L1 20L1 21L2 21L2 23L1 23L1 22L0 22L0 24L2 24L2 25L1 25L1 26L0 26L0 27L1 27L1 28L2 28L2 29L4 29L4 30L2 30L2 31L1 31L1 29L0 29L0 31L1 31L1 32L2 32L2 33L0 33L0 34L2 34L2 38L3 38L3 36L5 36L5 37L4 37L4 40L3 40L3 39L2 39L2 40L3 40L3 42L4 42L4 43L2 43L2 42L0 42L0 43L2 43L2 44L1 44L1 45L2 45L2 47L1 47L1 46L0 46L0 48L5 48L5 47L7 47L7 48L6 48L6 49L8 49L8 51L11 51L11 53L12 53L12 54L13 54L13 56L14 56L14 57L15 57L15 56L18 56L18 55L17 55L17 53L16 53L16 51L17 51L17 52L19 52L19 53L20 53L20 54L22 54L22 53L23 53L23 55L21 55L21 56L22 56L22 57L23 57L23 55L24 55L24 57L25 57L25 56L27 56L27 57L30 57L30 56L29 56L29 54L33 54L33 52L34 52L34 51L36 51L36 50L34 50L34 49L35 49L35 48L37 48L37 49L38 49L38 50L39 50L39 51L38 51L38 52L36 52L36 53L37 53L37 54L34 54L34 55L31 55L31 56L35 56L35 57L37 57L37 56L38 56L38 55L39 55L39 56L40 56L40 57L42 57L42 55L41 55L41 54L42 54L42 52L43 52L43 51L44 51L44 53L43 53L43 57L44 57L44 55L47 55L47 56L46 56L46 57L47 57L47 56L49 56L49 54L50 54L50 57L51 57L51 56L53 56L53 55L54 55L54 54L53 54L53 55L52 55L52 54L51 54L51 53L53 53L53 52L54 52L54 53L55 53L55 54L56 54L56 53L57 53L57 51L56 51L56 49L57 49L57 45L56 45L56 44L54 44L54 43L55 43L55 42L53 42L53 40L52 40L52 39L50 39L50 41L49 41L49 40L48 40L48 39L47 39L47 38L49 38L49 36L52 36L52 37L53 37L53 38L54 38L54 41L56 41L56 42L57 42L57 39L56 39L56 37L57 37L57 36L55 36L55 38L54 38L54 35L57 35L57 33L56 33L56 32L54 32L54 31L56 31L56 30L57 30L57 29L56 29L56 30L53 30L53 28L54 28L54 29L55 29L55 27L56 27L56 28L57 28L57 27L56 27L56 26L55 26L55 25L54 25L54 26L53 26L53 25L52 25L52 23L53 23L53 24L54 24L54 23L55 23L55 24L56 24L56 23L57 23L57 20L54 20L54 22L52 22L52 23L50 23L50 22L49 22L49 21L53 21L53 19L52 19L52 18L53 18L53 17L52 17L52 16L54 16L54 17L56 17L56 18L57 18L57 16L56 16L56 15L54 15L54 14L53 14L53 13L54 13L54 12L53 12L53 13L52 13L52 16L50 16L50 17L49 17L49 14L48 14L48 13L47 13L47 12L50 12L50 15L51 15L51 12L52 12L52 11L51 11L51 12L50 12L50 11L47 11L47 10L49 10L49 9L51 9L51 10L52 10L52 9L53 9L53 8L52 8L52 9L51 9L51 8L49 8L49 6L48 6L48 9L47 9L47 10L44 10L44 8L45 8L45 6L46 6L46 7L47 7L47 5L48 5L48 0L46 0L46 1L47 1L47 2L46 2L46 3L47 3L47 5L46 5L46 4L44 4L44 3L45 3L45 1L44 1L44 0L39 0L39 1L41 1L41 2L43 2L43 1L44 1L44 3L43 3L43 4L44 4L44 5L42 5L42 8L41 8L41 5L39 5L39 2L38 2L38 3L37 3L37 5L36 5L36 3L35 3L35 2L37 2L37 1L35 1L35 0L32 0L32 1L30 1L30 3L28 3L28 4L27 4L27 0L24 0L24 1L23 1L23 2L24 2L24 3L23 3L23 4L22 4L22 5L24 5L24 7L25 7L25 4L26 4L26 9L27 9L27 10L25 10L25 11L23 11L23 13L22 13L22 12L20 12L20 8L21 8L21 4L18 4L18 5L17 5L17 4L16 4L16 3L18 3L18 2L19 2L19 3L21 3L21 2L22 2L22 0L20 0L20 2L19 2L19 0L15 0L15 1L16 1L16 2L14 2L14 4L13 4L13 6L12 6L12 5L10 5L10 4L11 4L11 3L13 3L13 1L14 1L14 0L13 0L13 1L11 1L11 0ZM28 0L28 1L29 1L29 0ZM25 1L25 3L26 3L26 1ZM32 1L32 2L34 2L34 1ZM31 3L31 10L32 10L32 6L33 6L33 9L34 9L34 11L32 11L32 12L30 12L30 13L31 13L31 14L28 14L28 13L29 13L29 11L30 11L30 9L29 9L29 11L28 11L28 10L27 10L27 11L26 11L26 12L27 12L27 14L26 14L26 13L25 13L25 12L24 12L24 14L25 14L25 15L27 15L27 16L26 16L26 17L25 17L25 16L24 16L24 18L22 18L22 19L19 19L19 16L18 16L18 15L16 15L16 16L15 16L15 17L17 17L17 18L15 18L15 19L16 19L16 20L14 20L14 19L13 19L13 17L14 17L14 16L13 16L13 17L12 17L12 16L11 16L11 17L12 17L12 19L11 19L11 18L9 18L9 19L11 19L11 20L12 20L12 21L9 21L9 22L8 22L8 21L6 21L6 22L7 22L7 23L5 23L5 22L3 22L3 23L2 23L2 24L3 24L3 25L2 25L2 28L4 28L4 26L8 26L8 25L9 25L9 26L10 26L10 25L14 25L14 24L16 24L16 23L17 23L17 24L18 24L18 25L16 25L16 26L15 26L15 27L17 27L17 29L16 29L16 31L17 31L17 32L19 32L19 29L20 29L20 28L21 28L21 27L22 27L22 26L23 26L23 25L22 25L22 24L23 24L23 22L24 22L24 18L25 18L25 19L30 19L30 20L31 20L31 22L32 22L32 23L34 23L34 24L33 24L33 25L32 25L32 24L29 24L29 20L28 20L28 25L27 25L27 24L25 24L25 23L24 23L24 28L23 28L23 32L25 32L25 31L26 31L26 32L28 32L28 34L27 34L27 33L26 33L26 34L27 34L27 35L25 35L25 34L24 34L24 33L21 33L21 32L20 32L20 33L14 33L14 32L15 32L15 31L14 31L14 32L13 32L13 31L10 31L10 30L11 30L11 28L10 28L10 27L9 27L9 28L10 28L10 30L9 30L9 31L6 31L6 32L5 32L5 34L4 34L4 35L5 35L5 36L7 36L7 35L6 35L6 34L7 34L7 33L6 33L6 32L8 32L8 33L9 33L9 34L8 34L8 36L9 36L9 34L10 34L10 35L11 35L11 34L12 34L12 36L14 36L14 37L15 37L15 39L14 39L14 40L13 40L13 41L12 41L12 42L13 42L13 43L14 43L14 42L15 42L15 40L16 40L16 41L17 41L17 42L16 42L16 43L15 43L15 45L18 45L18 46L17 46L17 47L16 47L16 46L15 46L15 47L16 47L16 48L15 48L15 50L17 50L17 51L18 51L18 49L17 49L17 47L19 47L19 45L21 45L21 46L22 46L22 45L21 45L21 44L23 44L23 47L21 47L21 48L22 48L22 49L23 49L23 48L24 48L24 46L25 46L25 45L26 45L26 47L25 47L25 50L21 50L21 49L20 49L20 50L19 50L19 51L20 51L20 50L21 50L21 52L20 52L20 53L22 53L22 52L23 52L23 53L24 53L24 55L26 55L26 54L25 54L25 50L26 50L26 48L28 48L28 47L27 47L27 46L28 46L28 45L29 45L29 46L31 46L31 47L32 47L32 48L33 48L33 49L31 49L31 50L33 50L33 49L34 49L34 48L35 48L35 46L36 46L36 47L37 47L37 46L38 46L38 49L41 49L41 50L40 50L40 51L42 51L42 50L44 50L44 49L46 49L46 51L45 51L45 52L47 52L47 51L48 51L48 48L49 48L49 47L50 47L50 46L51 46L51 45L50 45L50 44L51 44L51 42L52 42L52 47L51 47L51 48L52 48L52 47L53 47L53 49L54 49L54 51L55 51L55 53L56 53L56 51L55 51L55 48L56 48L56 47L53 47L53 46L54 46L54 45L53 45L53 42L52 42L52 40L51 40L51 42L50 42L50 43L49 43L49 44L47 44L47 43L48 43L48 41L47 41L47 40L46 40L46 39L43 39L43 40L44 40L44 41L45 41L45 42L46 42L46 44L47 44L47 45L45 45L45 43L43 43L43 41L42 41L42 38L43 38L43 37L42 37L42 36L44 36L44 37L45 37L45 36L44 36L44 35L43 35L43 34L45 34L45 35L46 35L46 34L48 34L48 36L46 36L46 38L47 38L47 37L48 37L48 36L49 36L49 33L50 33L50 34L51 34L51 35L53 35L53 31L49 31L49 33L48 33L48 29L47 29L47 32L46 32L46 33L45 33L45 31L43 31L43 32L42 32L42 31L41 31L41 33L40 33L40 31L38 31L38 30L40 30L40 29L41 29L41 28L40 28L40 29L39 29L39 28L38 28L38 29L37 29L37 27L38 27L38 25L39 25L39 26L40 26L40 27L43 27L43 28L42 28L42 30L43 30L43 29L44 29L44 30L46 30L46 28L47 28L47 27L48 27L48 26L50 26L50 24L49 24L49 23L48 23L48 21L47 21L47 20L52 20L52 19L49 19L49 17L47 17L47 16L48 16L48 15L47 15L47 13L46 13L46 11L45 11L45 12L44 12L44 13L46 13L46 14L45 14L45 17L43 17L43 16L44 16L44 14L43 14L43 11L44 11L44 10L43 10L43 11L42 11L42 9L43 9L43 8L42 8L42 9L40 9L40 8L38 8L38 6L37 6L37 9L36 9L36 5L35 5L35 4L33 4L33 3ZM32 4L32 5L33 5L33 6L34 6L34 7L35 7L35 6L34 6L34 5L33 5L33 4ZM16 5L16 6L15 6L15 7L14 7L14 6L13 6L13 7L14 7L14 8L13 8L13 9L12 9L12 6L11 6L11 7L10 7L10 9L12 9L12 10L10 10L10 11L9 11L9 13L10 13L10 14L11 14L11 15L12 15L12 14L11 14L11 12L12 12L12 13L13 13L13 14L14 14L14 15L15 15L15 14L14 14L14 12L15 12L15 13L16 13L16 14L18 14L18 13L17 13L17 12L15 12L15 11L14 11L14 12L12 12L12 11L13 11L13 9L14 9L14 10L16 10L16 9L15 9L15 7L16 7L16 6L17 6L17 9L18 9L18 10L19 10L19 8L20 8L20 6L19 6L19 7L18 7L18 6L17 6L17 5ZM27 5L27 8L30 8L30 5ZM44 5L44 6L43 6L43 7L44 7L44 6L45 6L45 5ZM22 6L22 9L21 9L21 10L22 10L22 9L24 9L24 8L23 8L23 6ZM28 6L28 7L29 7L29 6ZM39 6L39 7L40 7L40 6ZM34 8L34 9L35 9L35 8ZM0 9L0 10L1 10L1 9ZM39 9L39 10L35 10L35 11L36 11L36 15L37 15L37 17L39 17L39 18L38 18L38 19L36 19L36 17L34 17L34 18L35 18L35 19L34 19L34 20L35 20L35 21L34 21L34 23L35 23L35 24L34 24L34 25L33 25L33 26L32 26L32 25L29 25L29 26L27 26L27 25L26 25L26 29L25 29L25 28L24 28L24 31L25 31L25 30L26 30L26 31L31 31L31 26L32 26L32 27L34 27L34 28L35 28L35 29L34 29L34 30L36 30L36 28L35 28L35 27L37 27L37 26L35 26L35 25L36 25L36 24L38 24L38 23L36 23L36 22L35 22L35 21L36 21L36 20L39 20L39 21L41 21L41 22L40 22L40 26L41 26L41 24L46 24L46 23L47 23L47 22L46 22L46 21L44 21L44 23L43 23L43 21L42 21L42 20L41 20L41 19L40 19L40 18L42 18L42 17L40 17L40 16L42 16L42 15L43 15L43 14L39 14L39 13L38 13L38 14L37 14L37 11L39 11L39 10L40 10L40 9ZM56 9L56 11L55 11L55 10L53 10L53 11L55 11L55 12L56 12L56 13L57 13L57 9ZM19 12L19 13L20 13L20 14L22 14L22 15L20 15L20 17L21 17L21 16L22 16L22 15L23 15L23 14L22 14L22 13L20 13L20 12ZM33 12L33 13L32 13L32 14L31 14L31 15L32 15L32 16L33 16L33 15L32 15L32 14L34 14L34 16L35 16L35 14L34 14L34 12ZM41 12L41 13L42 13L42 12ZM1 13L1 14L3 14L3 15L4 15L4 14L3 14L3 13ZM8 15L8 16L9 16L9 15ZM29 15L29 16L30 16L30 17L29 17L29 18L30 18L30 19L31 19L31 20L32 20L32 21L33 21L33 19L32 19L32 18L33 18L33 17L32 17L32 18L30 18L30 17L31 17L31 16L30 16L30 15ZM27 16L27 17L28 17L28 16ZM45 17L45 20L46 20L46 19L47 19L47 17ZM50 17L50 18L51 18L51 17ZM17 18L17 20L16 20L16 21L13 21L13 22L10 22L10 24L13 24L13 22L14 22L14 23L15 23L15 22L16 22L16 21L17 21L17 23L19 23L19 26L22 26L22 25L21 25L21 24L20 24L20 23L22 23L22 22L23 22L23 21L22 21L22 22L20 22L20 23L19 23L19 22L18 22L18 21L21 21L21 20L19 20L19 19L18 19L18 18ZM54 18L54 19L55 19L55 18ZM12 19L12 20L13 20L13 19ZM22 19L22 20L23 20L23 19ZM39 19L39 20L40 20L40 19ZM4 20L4 21L5 21L5 20ZM26 20L26 23L27 23L27 20ZM55 21L55 22L56 22L56 21ZM41 22L41 23L42 23L42 22ZM8 23L8 24L9 24L9 23ZM4 24L4 25L3 25L3 26L4 26L4 25L7 25L7 24ZM47 24L47 25L48 25L48 24ZM42 25L42 26L43 26L43 27L44 27L44 29L45 29L45 28L46 28L46 26L45 26L45 27L44 27L44 25ZM51 25L51 26L52 26L52 25ZM11 26L11 27L12 27L12 28L14 28L14 30L15 30L15 28L14 28L14 27L13 27L13 26ZM17 26L17 27L18 27L18 26ZM34 26L34 27L35 27L35 26ZM5 27L5 30L8 30L8 27ZM19 27L19 28L20 28L20 27ZM27 27L27 30L30 30L30 27ZM49 27L49 30L52 30L52 27ZM6 28L6 29L7 29L7 28ZM28 28L28 29L29 29L29 28ZM50 28L50 29L51 29L51 28ZM21 29L21 30L22 30L22 29ZM32 29L32 30L33 30L33 29ZM2 31L2 32L3 32L3 33L4 33L4 32L3 32L3 31ZM9 31L9 33L10 33L10 34L11 34L11 33L10 33L10 31ZM32 31L32 32L33 32L33 34L34 34L34 37L33 37L33 39L31 39L31 38L32 38L32 37L30 37L30 35L29 35L29 34L28 34L28 35L27 35L27 36L25 36L25 37L26 37L26 38L27 38L27 39L26 39L26 40L25 40L25 39L24 39L24 38L22 38L22 35L23 35L23 34L22 34L22 35L21 35L21 33L20 33L20 35L21 35L21 36L20 36L20 40L19 40L19 39L18 39L18 38L19 38L19 37L18 37L18 36L19 36L19 35L17 35L17 37L18 37L18 38L17 38L17 40L18 40L18 43L20 43L20 42L19 42L19 41L21 41L21 43L23 43L23 44L24 44L24 45L25 45L25 44L27 44L27 45L28 45L28 44L29 44L29 43L30 43L30 44L31 44L31 43L30 43L30 42L33 42L33 43L34 43L34 44L35 44L35 45L34 45L34 46L33 46L33 44L32 44L32 47L34 47L34 46L35 46L35 45L41 45L41 46L42 46L42 47L41 47L41 49L44 49L44 48L46 48L46 49L47 49L47 48L48 48L48 47L49 47L49 45L47 45L47 46L46 46L46 47L44 47L44 46L45 46L45 45L42 45L42 44L41 44L41 43L42 43L42 42L41 42L41 41L40 41L40 42L39 42L39 41L38 41L38 42L39 42L39 43L38 43L38 44L37 44L37 42L36 42L36 41L34 41L34 40L33 40L33 39L36 39L36 38L37 38L37 40L41 40L41 37L38 37L38 38L37 38L37 33L38 33L38 31L36 31L36 33L35 33L35 31L34 31L34 32L33 32L33 31ZM29 32L29 33L31 33L31 34L32 34L32 33L31 33L31 32ZM50 32L50 33L51 33L51 34L52 34L52 32ZM12 33L12 34L13 34L13 33ZM39 33L39 36L40 36L40 33ZM41 33L41 34L43 34L43 33ZM54 33L54 34L56 34L56 33ZM15 34L15 35L14 35L14 36L16 36L16 34ZM35 34L35 35L36 35L36 34ZM0 35L0 36L1 36L1 35ZM32 35L32 36L33 36L33 35ZM41 35L41 36L42 36L42 35ZM10 36L10 37L9 37L9 38L10 38L10 39L9 39L9 40L8 40L8 37L5 37L5 38L7 38L7 39L6 39L6 40L8 40L8 41L6 41L6 42L5 42L5 43L4 43L4 44L2 44L2 45L4 45L4 46L3 46L3 47L5 47L5 46L7 46L7 47L8 47L8 49L9 49L9 50L11 50L11 51L12 51L12 53L13 53L13 51L14 51L14 49L12 49L12 46L13 46L13 45L14 45L14 44L12 44L12 43L9 43L9 44L8 44L8 41L9 41L9 42L10 42L10 41L11 41L11 40L12 40L12 39L13 39L13 37L11 37L11 36ZM23 36L23 37L24 37L24 36ZM27 36L27 37L28 37L28 36ZM0 37L0 40L1 40L1 37ZM29 37L29 38L30 38L30 37ZM35 37L35 38L36 38L36 37ZM11 38L11 39L10 39L10 40L11 40L11 39L12 39L12 38ZM39 38L39 39L40 39L40 38ZM22 39L22 41L23 41L23 42L24 42L24 40L23 40L23 39ZM28 39L28 40L26 40L26 41L25 41L25 43L24 43L24 44L25 44L25 43L27 43L27 44L28 44L28 43L29 43L29 42L30 42L30 41L29 41L29 39ZM4 40L4 41L5 41L5 40ZM31 40L31 41L32 41L32 40ZM45 40L45 41L46 41L46 42L47 42L47 41L46 41L46 40ZM13 41L13 42L14 42L14 41ZM27 41L27 43L28 43L28 42L29 42L29 41ZM33 41L33 42L34 42L34 43L35 43L35 44L36 44L36 43L35 43L35 42L34 42L34 41ZM6 42L6 43L7 43L7 42ZM40 42L40 43L41 43L41 42ZM5 44L5 45L8 45L8 44ZM11 44L11 45L12 45L12 44ZM9 45L9 46L8 46L8 47L9 47L9 48L10 48L10 49L11 49L11 50L12 50L12 51L13 51L13 50L12 50L12 49L11 49L11 48L10 48L10 47L11 47L11 46L10 46L10 45ZM13 47L13 48L14 48L14 47ZM42 47L42 48L43 48L43 47ZM46 47L46 48L47 48L47 47ZM27 49L27 52L30 52L30 49ZM49 49L49 52L52 52L52 49ZM28 50L28 51L29 51L29 50ZM50 50L50 51L51 51L51 50ZM40 52L40 54L39 54L39 53L38 53L38 54L39 54L39 55L40 55L40 56L41 56L41 55L40 55L40 54L41 54L41 52ZM8 53L8 55L10 55L10 57L12 57L12 56L11 56L11 55L10 55L10 54L9 54L9 53ZM14 53L14 54L16 54L16 53ZM27 53L27 56L28 56L28 54L29 54L29 53ZM44 53L44 54L46 54L46 53ZM47 54L47 55L48 55L48 54ZM14 55L14 56L15 56L15 55ZM36 55L36 56L37 56L37 55ZM56 55L56 56L57 56L57 55ZM54 56L54 57L55 57L55 56ZM0 0L0 7L7 7L7 0ZM1 1L1 6L6 6L6 1ZM2 2L2 5L5 5L5 2ZM50 0L50 7L57 7L57 0ZM51 1L51 6L56 6L56 1ZM52 2L52 5L55 5L55 2ZM0 50L0 57L7 57L7 50ZM1 51L1 56L6 56L6 51ZM2 52L2 55L5 55L5 52Z" fill="#000000"/></g></g></svg>
