<?xml version="1.0" encoding="UTF-8"?>
<svg xmlns="http://www.w3.org/2000/svg" version="1.1" width="200" height="200" viewBox="0 0 200 200"><rect x="0" y="0" width="200" height="200" fill="#ffffff"/><g transform="scale(3.509)"><g transform="translate(0,0)"><path fill-rule="evenodd" d="M10 0L10 1L11 1L11 3L10 3L10 4L8 4L8 5L10 5L10 7L9 7L9 6L8 6L8 8L6 8L6 9L8 9L8 10L10 10L10 11L9 11L9 12L8 12L8 11L7 11L7 10L6 10L6 11L5 11L5 9L4 9L4 8L2 8L2 10L1 10L1 9L0 9L0 10L1 10L1 11L0 11L0 12L1 12L1 11L2 11L2 12L6 12L6 13L9 13L9 14L5 14L5 13L1 13L1 15L3 15L3 14L4 14L4 16L3 16L3 17L5 17L5 18L3 18L3 19L2 19L2 22L5 22L5 23L4 23L4 24L5 24L5 25L3 25L3 23L1 23L1 18L2 18L2 16L1 16L1 17L0 17L0 24L2 24L2 25L1 25L1 26L0 26L0 30L1 30L1 32L2 32L2 34L0 34L0 40L1 40L1 36L2 36L2 38L6 38L6 39L5 39L5 40L4 40L4 39L2 39L2 40L3 40L3 42L4 42L4 43L0 43L0 45L1 45L1 44L3 44L3 45L4 45L4 44L6 44L6 45L7 45L7 46L5 46L5 47L3 47L3 46L2 46L2 47L1 47L1 46L0 46L0 48L5 48L5 47L7 47L7 48L6 48L6 49L7 49L7 48L8 48L8 51L9 51L9 52L10 52L10 53L8 53L8 55L10 55L10 56L9 56L9 57L12 57L12 55L13 55L13 56L14 56L14 57L15 57L15 56L16 56L16 55L17 55L17 56L18 56L18 55L19 55L19 56L22 56L22 57L23 57L23 56L24 56L24 55L25 55L25 56L26 56L26 55L25 55L25 53L24 53L24 52L21 52L21 51L22 51L22 50L25 50L25 52L26 52L26 53L29 53L29 54L28 54L28 56L27 56L27 57L30 57L30 55L31 55L31 57L32 57L32 56L34 56L34 57L35 57L35 56L36 56L36 55L38 55L38 56L40 56L40 57L42 57L42 55L41 55L41 54L42 54L42 52L43 52L43 50L44 50L44 53L43 53L43 57L44 57L44 55L47 55L47 56L46 56L46 57L47 57L47 56L49 56L49 54L50 54L50 57L51 57L51 56L53 56L53 55L54 55L54 54L53 54L53 55L52 55L52 54L51 54L51 53L53 53L53 52L54 52L54 53L55 53L55 54L56 54L56 53L57 53L57 51L56 51L56 49L57 49L57 45L56 45L56 44L54 44L54 43L55 43L55 42L54 42L54 43L53 43L53 45L54 45L54 46L53 46L53 47L52 47L52 42L53 42L53 40L52 40L52 39L50 39L50 41L49 41L49 40L48 40L48 37L49 37L49 38L50 38L50 37L49 37L49 36L51 36L51 34L52 34L52 32L50 32L50 33L49 33L49 31L53 31L53 36L52 36L52 37L53 37L53 38L54 38L54 41L56 41L56 42L57 42L57 39L56 39L56 37L57 37L57 36L55 36L55 38L54 38L54 35L57 35L57 33L56 33L56 32L54 32L54 31L56 31L56 30L57 30L57 29L56 29L56 30L53 30L53 28L54 28L54 29L55 29L55 27L56 27L56 28L57 28L57 27L56 27L56 26L55 26L55 25L54 25L54 26L53 26L53 25L52 25L52 23L53 23L53 24L54 24L54 23L55 23L55 24L56 24L56 23L57 23L57 20L54 20L54 22L52 22L52 23L50 23L50 22L49 22L49 21L53 21L53 19L52 19L52 18L53 18L53 17L52 17L52 16L54 16L54 17L56 17L56 18L57 18L57 16L56 16L56 15L54 15L54 14L53 14L53 13L54 13L54 12L53 12L53 13L52 13L52 16L50 16L50 17L49 17L49 14L48 14L48 13L47 13L47 10L48 10L48 11L49 11L49 12L50 12L50 15L51 15L51 12L52 12L52 9L53 9L53 8L52 8L52 9L51 9L51 8L49 8L49 6L48 6L48 9L47 9L47 10L44 10L44 8L45 8L45 6L46 6L46 7L47 7L47 5L48 5L48 0L46 0L46 1L47 1L47 2L46 2L46 3L47 3L47 5L46 5L46 4L44 4L44 3L45 3L45 1L44 1L44 0L39 0L39 1L41 1L41 2L43 2L43 1L44 1L44 3L43 3L43 4L44 4L44 5L42 5L42 8L41 8L41 5L39 5L39 2L38 2L38 3L37 3L37 5L36 5L36 3L35 3L35 2L36 2L36 0L35 0L35 2L34 2L34 0L32 0L32 1L33 1L33 2L31 2L31 3L33 3L33 4L32 4L32 5L33 5L33 6L32 6L32 7L31 7L31 4L28 4L28 2L27 2L27 0L24 0L24 1L23 1L23 2L24 2L24 3L26 3L26 4L25 4L25 6L24 6L24 7L25 7L25 8L26 8L26 9L28 9L28 10L25 10L25 11L23 11L23 10L22 10L22 11L21 11L21 9L22 9L22 8L20 8L20 7L21 7L21 6L20 6L20 7L19 7L19 3L20 3L20 4L21 4L21 5L22 5L22 4L21 4L21 3L22 3L22 2L21 2L21 1L22 1L22 0L20 0L20 2L17 2L17 1L19 1L19 0L15 0L15 1L14 1L14 0L13 0L13 1L11 1L11 0ZM28 0L28 1L30 1L30 0ZM13 1L13 3L11 3L11 4L12 4L12 5L11 5L11 7L10 7L10 9L12 9L12 11L10 11L10 12L13 12L13 13L11 13L11 14L12 14L12 15L13 15L13 13L15 13L15 10L16 10L16 9L15 9L15 10L13 10L13 8L14 8L14 5L15 5L15 8L17 8L17 9L18 9L18 10L17 10L17 11L18 11L18 12L16 12L16 14L14 14L14 15L17 15L17 16L15 16L15 17L17 17L17 18L15 18L15 19L16 19L16 20L15 20L15 21L14 21L14 18L13 18L13 17L14 17L14 16L13 16L13 17L12 17L12 16L11 16L11 17L12 17L12 19L11 19L11 18L10 18L10 19L9 19L9 17L8 17L8 18L7 18L7 17L6 17L6 18L7 18L7 19L6 19L6 20L8 20L8 21L6 21L6 22L7 22L7 23L5 23L5 24L7 24L7 25L5 25L5 26L9 26L9 25L10 25L10 27L9 27L9 28L10 28L10 27L12 27L12 29L13 29L13 26L11 26L11 25L14 25L14 24L15 24L15 25L16 25L16 26L17 26L17 27L16 27L16 28L15 28L15 26L14 26L14 30L15 30L15 31L14 31L14 32L13 32L13 31L12 31L12 30L11 30L11 31L10 31L10 29L9 29L9 31L10 31L10 33L9 33L9 32L8 32L8 31L4 31L4 32L3 32L3 30L2 30L2 32L3 32L3 33L4 33L4 32L5 32L5 34L4 34L4 35L5 35L5 36L7 36L7 37L6 37L6 38L8 38L8 41L4 41L4 42L5 42L5 43L6 43L6 44L7 44L7 45L8 45L8 46L7 46L7 47L8 47L8 48L9 48L9 51L12 51L12 52L13 52L13 51L14 51L14 52L15 52L15 51L14 51L14 49L12 49L12 48L14 48L14 47L12 47L12 48L11 48L11 47L10 47L10 48L9 48L9 46L11 46L11 43L12 43L12 46L13 46L13 45L14 45L14 46L15 46L15 47L16 47L16 48L15 48L15 50L18 50L18 49L17 49L17 47L21 47L21 48L22 48L22 49L23 49L23 47L21 47L21 46L20 46L20 45L21 45L21 43L22 43L22 45L23 45L23 46L25 46L25 45L26 45L26 48L25 48L25 47L24 47L24 48L25 48L25 50L26 50L26 48L28 48L28 47L27 47L27 45L28 45L28 46L29 46L29 48L31 48L31 49L32 49L32 44L33 44L33 46L34 46L34 47L33 47L33 49L34 49L34 47L35 47L35 48L36 48L36 49L35 49L35 50L36 50L36 49L37 49L37 51L35 51L35 52L34 52L34 53L33 53L33 54L31 54L31 55L33 55L33 54L37 54L37 53L36 53L36 52L38 52L38 51L39 51L39 50L38 50L38 49L41 49L41 50L40 50L40 51L41 51L41 50L43 50L43 49L41 49L41 48L43 48L43 47L42 47L42 46L41 46L41 45L37 45L37 44L38 44L38 43L39 43L39 42L40 42L40 43L41 43L41 44L42 44L42 45L45 45L45 46L44 46L44 47L46 47L46 48L44 48L44 49L46 49L46 51L45 51L45 52L47 52L47 51L48 51L48 50L47 50L47 49L48 49L48 48L49 48L49 47L50 47L50 46L51 46L51 45L50 45L50 44L51 44L51 42L52 42L52 40L51 40L51 42L50 42L50 43L49 43L49 42L48 42L48 41L47 41L47 40L46 40L46 39L43 39L43 40L42 40L42 38L43 38L43 37L42 37L42 36L44 36L44 37L45 37L45 36L44 36L44 35L43 35L43 34L45 34L45 35L46 35L46 34L48 34L48 36L46 36L46 38L47 38L47 37L48 37L48 36L49 36L49 33L48 33L48 29L47 29L47 31L43 31L43 32L42 32L42 31L41 31L41 33L43 33L43 34L39 34L39 33L40 33L40 31L38 31L38 30L40 30L40 29L41 29L41 28L40 28L40 29L39 29L39 28L38 28L38 29L37 29L37 27L38 27L38 25L39 25L39 26L40 26L40 27L43 27L43 28L42 28L42 30L43 30L43 29L44 29L44 30L46 30L46 28L47 28L47 27L48 27L48 26L50 26L50 24L49 24L49 23L48 23L48 21L47 21L47 20L52 20L52 19L49 19L49 17L47 17L47 16L48 16L48 15L47 15L47 13L46 13L46 11L45 11L45 12L44 12L44 13L46 13L46 14L45 14L45 17L43 17L43 16L42 16L42 18L40 18L40 19L39 19L39 20L36 20L36 21L34 21L34 20L33 20L33 21L32 21L32 20L30 20L30 18L31 18L31 19L32 19L32 15L34 15L34 14L35 14L35 16L34 16L34 17L33 17L33 19L34 19L34 17L35 17L35 18L36 18L36 17L37 17L37 19L38 19L38 18L39 18L39 17L37 17L37 14L38 14L38 13L39 13L39 14L43 14L43 15L44 15L44 14L43 14L43 11L44 11L44 10L43 10L43 11L42 11L42 9L43 9L43 8L42 8L42 9L40 9L40 8L38 8L38 6L37 6L37 7L36 7L36 5L35 5L35 4L33 4L33 5L34 5L34 6L33 6L33 8L32 8L32 9L33 9L33 8L35 8L35 9L36 9L36 10L35 10L35 11L34 11L34 10L31 10L31 11L32 11L32 12L31 12L31 14L30 14L30 16L29 16L29 14L28 14L28 13L29 13L29 12L30 12L30 11L26 11L26 12L27 12L27 13L26 13L26 14L24 14L24 15L23 15L23 14L22 14L22 15L21 15L21 13L20 13L20 10L19 10L19 7L18 7L18 6L17 6L17 7L16 7L16 5L18 5L18 3L15 3L15 2L16 2L16 1L15 1L15 2L14 2L14 1ZM25 1L25 2L26 2L26 3L27 3L27 2L26 2L26 1ZM13 3L13 5L12 5L12 7L11 7L11 8L12 8L12 7L13 7L13 5L14 5L14 4L15 4L15 3ZM23 4L23 5L24 5L24 4ZM27 5L27 8L30 8L30 5ZM44 5L44 6L43 6L43 7L44 7L44 6L45 6L45 5ZM22 6L22 7L23 7L23 6ZM25 6L25 7L26 7L26 6ZM28 6L28 7L29 7L29 6ZM34 6L34 7L35 7L35 8L36 8L36 7L35 7L35 6ZM39 6L39 7L40 7L40 6ZM23 8L23 9L24 9L24 8ZM39 9L39 10L36 10L36 11L39 11L39 10L40 10L40 9ZM49 9L49 11L50 11L50 12L51 12L51 9ZM56 9L56 11L55 11L55 10L53 10L53 11L55 11L55 12L56 12L56 13L57 13L57 9ZM2 10L2 11L4 11L4 10ZM18 10L18 11L19 11L19 10ZM6 11L6 12L7 12L7 11ZM13 11L13 12L14 12L14 11ZM22 11L22 12L23 12L23 11ZM18 12L18 13L17 13L17 15L18 15L18 16L19 16L19 19L18 19L18 18L17 18L17 19L18 19L18 20L17 20L17 21L16 21L16 22L17 22L17 21L18 21L18 23L17 23L17 24L16 24L16 25L17 25L17 24L18 24L18 25L19 25L19 26L18 26L18 27L17 27L17 28L16 28L16 29L17 29L17 28L18 28L18 27L19 27L19 29L18 29L18 30L19 30L19 29L20 29L20 27L19 27L19 26L22 26L22 25L23 25L23 27L22 27L22 28L23 28L23 29L21 29L21 30L20 30L20 31L19 31L19 32L17 32L17 31L16 31L16 32L14 32L14 33L20 33L20 35L21 35L21 33L24 33L24 34L28 34L28 35L26 35L26 36L22 36L22 37L20 37L20 36L18 36L18 35L19 35L19 34L18 34L18 35L17 35L17 36L16 36L16 34L15 34L15 35L14 35L14 34L13 34L13 33L12 33L12 34L11 34L11 33L10 33L10 37L9 37L9 36L8 36L8 34L9 34L9 33L8 33L8 32L6 32L6 33L7 33L7 34L6 34L6 35L7 35L7 36L8 36L8 37L9 37L9 39L10 39L10 40L11 40L11 41L10 41L10 42L12 42L12 43L14 43L14 45L15 45L15 46L16 46L16 47L17 47L17 46L19 46L19 45L20 45L20 43L21 43L21 42L22 42L22 43L23 43L23 45L25 45L25 44L27 44L27 43L28 43L28 45L29 45L29 46L30 46L30 47L31 47L31 45L29 45L29 43L30 43L30 42L31 42L31 43L32 43L32 42L33 42L33 40L34 40L34 44L35 44L35 45L34 45L34 46L35 46L35 45L36 45L36 48L37 48L37 49L38 49L38 46L37 46L37 45L36 45L36 44L37 44L37 43L36 43L36 42L37 42L37 40L41 40L41 41L42 41L42 40L41 40L41 37L38 37L38 38L37 38L37 33L38 33L38 31L36 31L36 32L35 32L35 33L34 33L34 32L33 32L33 28L32 28L32 29L31 29L31 26L32 26L32 27L34 27L34 28L35 28L35 29L34 29L34 30L36 30L36 28L35 28L35 26L36 26L36 27L37 27L37 26L36 26L36 25L37 25L37 24L38 24L38 23L37 23L37 24L36 24L36 22L33 22L33 23L32 23L32 22L31 22L31 23L30 23L30 22L29 22L29 21L28 21L28 20L29 20L29 19L28 19L28 18L30 18L30 17L31 17L31 16L30 16L30 17L29 17L29 16L28 16L28 18L27 18L27 16L26 16L26 15L25 15L25 17L26 17L26 18L24 18L24 16L23 16L23 15L22 15L22 16L21 16L21 17L20 17L20 13L19 13L19 12ZM33 12L33 13L32 13L32 14L31 14L31 15L32 15L32 14L34 14L34 12ZM41 12L41 13L42 13L42 12ZM35 13L35 14L36 14L36 13ZM6 15L6 16L7 16L7 15ZM40 16L40 17L41 17L41 16ZM45 17L45 20L46 20L46 19L47 19L47 17ZM50 17L50 18L51 18L51 17ZM23 18L23 20L22 20L22 19L19 19L19 21L20 21L20 22L19 22L19 23L18 23L18 24L19 24L19 23L21 23L21 25L22 25L22 24L24 24L24 23L25 23L25 24L26 24L26 22L28 22L28 21L27 21L27 20L28 20L28 19L27 19L27 18L26 18L26 20L25 20L25 21L26 21L26 22L22 22L22 23L21 23L21 21L20 21L20 20L22 20L22 21L24 21L24 18ZM54 18L54 19L55 19L55 18ZM3 19L3 21L5 21L5 20L4 20L4 19ZM12 19L12 21L11 21L11 20L9 20L9 21L8 21L8 22L9 22L9 23L7 23L7 24L8 24L8 25L9 25L9 23L10 23L10 22L12 22L12 24L13 24L13 22L14 22L14 23L15 23L15 22L14 22L14 21L13 21L13 19ZM40 19L40 20L39 20L39 21L41 21L41 22L40 22L40 26L41 26L41 24L46 24L46 23L47 23L47 22L46 22L46 21L44 21L44 23L43 23L43 21L42 21L42 20L41 20L41 19ZM55 21L55 22L56 22L56 21ZM41 22L41 23L42 23L42 22ZM27 23L27 25L28 25L28 23ZM10 24L10 25L11 25L11 24ZM29 24L29 25L32 25L32 24ZM35 24L35 25L36 25L36 24ZM47 24L47 25L48 25L48 24ZM2 25L2 29L4 29L4 26L3 26L3 25ZM24 25L24 27L23 27L23 28L24 28L24 27L25 27L25 29L24 29L24 30L23 30L23 31L24 31L24 32L25 32L25 33L26 33L26 32L27 32L27 31L26 31L26 30L25 30L25 29L26 29L26 25ZM42 25L42 26L43 26L43 25ZM44 25L44 26L45 26L45 27L44 27L44 29L45 29L45 28L46 28L46 26L45 26L45 25ZM51 25L51 26L52 26L52 25ZM5 27L5 30L8 30L8 27ZM27 27L27 30L30 30L30 27ZM49 27L49 30L52 30L52 27ZM6 28L6 29L7 29L7 28ZM28 28L28 29L29 29L29 28ZM50 28L50 29L51 29L51 28ZM24 30L24 31L25 31L25 32L26 32L26 31L25 31L25 30ZM31 30L31 31L29 31L29 32L28 32L28 34L29 34L29 32L31 32L31 31L32 31L32 30ZM20 32L20 33L21 33L21 32ZM45 32L45 33L47 33L47 32ZM30 33L30 34L31 34L31 36L30 36L30 37L29 37L29 36L28 36L28 37L27 37L27 38L26 38L26 37L24 37L24 40L23 40L23 42L24 42L24 40L25 40L25 42L26 42L26 41L29 41L29 42L28 42L28 43L29 43L29 42L30 42L30 40L29 40L29 39L28 39L28 38L30 38L30 37L32 37L32 38L31 38L31 40L33 40L33 37L34 37L34 35L35 35L35 34L34 34L34 33L33 33L33 34L32 34L32 33ZM50 33L50 34L51 34L51 33ZM54 33L54 34L56 34L56 33ZM12 34L12 36L14 36L14 37L13 37L13 39L11 39L11 38L12 38L12 37L11 37L11 38L10 38L10 39L11 39L11 40L13 40L13 42L15 42L15 40L16 40L16 41L17 41L17 42L16 42L16 43L15 43L15 45L17 45L17 44L18 44L18 45L19 45L19 42L18 42L18 40L17 40L17 38L18 38L18 39L20 39L20 40L19 40L19 41L22 41L22 39L21 39L21 38L20 38L20 37L19 37L19 38L18 38L18 36L17 36L17 37L15 37L15 36L14 36L14 35L13 35L13 34ZM22 34L22 35L23 35L23 34ZM32 35L32 36L33 36L33 35ZM39 35L39 36L40 36L40 35ZM41 35L41 36L42 36L42 35ZM3 36L3 37L4 37L4 36ZM14 37L14 40L15 40L15 39L16 39L16 38L15 38L15 37ZM35 37L35 38L36 38L36 39L34 39L34 40L35 40L35 41L36 41L36 39L37 39L37 38L36 38L36 37ZM39 38L39 39L40 39L40 38ZM6 39L6 40L7 40L7 39ZM25 39L25 40L27 40L27 39ZM55 39L55 40L56 40L56 39ZM43 40L43 43L45 43L45 45L47 45L47 46L46 46L46 47L47 47L47 48L46 48L46 49L47 49L47 48L48 48L48 47L49 47L49 45L47 45L47 44L49 44L49 43L47 43L47 44L46 44L46 42L47 42L47 41L46 41L46 40L45 40L45 41L44 41L44 40ZM8 41L8 45L9 45L9 44L10 44L10 43L9 43L9 41ZM38 41L38 42L39 42L39 41ZM45 41L45 42L46 42L46 41ZM6 42L6 43L7 43L7 42ZM17 42L17 43L18 43L18 42ZM41 42L41 43L42 43L42 42ZM24 43L24 44L25 44L25 43ZM51 47L51 48L52 48L52 47ZM53 47L53 49L54 49L54 51L55 51L55 53L56 53L56 51L55 51L55 48L56 48L56 47ZM10 48L10 49L11 49L11 50L12 50L12 51L13 51L13 50L12 50L12 49L11 49L11 48ZM20 49L20 50L19 50L19 51L20 51L20 50L21 50L21 49ZM27 49L27 52L30 52L30 49ZM49 49L49 52L52 52L52 49ZM28 50L28 51L29 51L29 50ZM33 50L33 51L34 51L34 50ZM50 50L50 51L51 51L51 50ZM16 51L16 52L17 52L17 54L18 54L18 53L19 53L19 55L20 55L20 52L17 52L17 51ZM40 52L40 54L39 54L39 53L38 53L38 54L39 54L39 55L40 55L40 56L41 56L41 55L40 55L40 54L41 54L41 52ZM10 53L10 54L11 54L11 55L12 55L12 54L15 54L15 55L14 55L14 56L15 56L15 55L16 55L16 54L15 54L15 53L12 53L12 54L11 54L11 53ZM22 53L22 54L21 54L21 55L23 55L23 54L24 54L24 53ZM44 53L44 54L46 54L46 53ZM47 54L47 55L48 55L48 54ZM34 55L34 56L35 56L35 55ZM56 55L56 56L57 56L57 55ZM54 56L54 57L55 57L55 56ZM0 0L0 7L7 7L7 0ZM1 1L1 6L6 6L6 1ZM2 2L2 5L5 5L5 2ZM50 0L50 7L57 7L57 0ZM51 1L51 6L56 6L56 1ZM52 2L52 5L55 5L55 2ZM0 50L0 57L7 57L7 50ZM1 51L1 56L6 56L6 51ZM2 52L2 55L5 55L5 52Z" fill="#000000"/></g></g></svg>
