<?xml version="1.0" encoding="UTF-8"?>
<svg xmlns="http://www.w3.org/2000/svg" version="1.1" width="200" height="200" viewBox="0 0 200 200"><rect x="0" y="0" width="200" height="200" fill="#ffffff"/><g transform="scale(3.509)"><g transform="translate(0,0)"><path fill-rule="evenodd" d="M9 0L9 2L8 2L8 4L9 4L9 6L8 6L8 7L9 7L9 9L8 9L8 8L6 8L6 9L5 9L5 8L3 8L3 11L2 11L2 12L3 12L3 11L4 11L4 12L6 12L6 13L5 13L5 14L6 14L6 15L4 15L4 16L3 16L3 15L1 15L1 16L0 16L0 17L1 17L1 18L0 18L0 19L1 19L1 18L2 18L2 20L0 20L0 23L1 23L1 24L2 24L2 23L3 23L3 24L4 24L4 21L3 21L3 19L7 19L7 20L5 20L5 22L6 22L6 23L5 23L5 24L6 24L6 25L5 25L5 26L4 26L4 28L1 28L1 29L3 29L3 30L1 30L1 32L0 32L0 33L1 33L1 34L0 34L0 35L1 35L1 34L2 34L2 35L3 35L3 36L1 36L1 37L0 37L0 38L1 38L1 39L2 39L2 40L0 40L0 45L1 45L1 46L0 46L0 48L5 48L5 47L7 47L7 48L6 48L6 49L7 49L7 48L8 48L8 47L9 47L9 49L8 49L8 51L9 51L9 52L8 52L8 54L9 54L9 55L10 55L10 56L9 56L9 57L11 57L11 55L13 55L13 56L12 56L12 57L13 57L13 56L14 56L14 53L15 53L15 55L16 55L16 53L15 53L15 52L18 52L18 54L19 54L19 55L18 55L18 56L17 56L17 57L22 57L22 56L23 56L23 57L24 57L24 55L25 55L25 54L24 54L24 52L25 52L25 53L26 53L26 54L27 54L27 55L26 55L26 56L27 56L27 57L28 57L28 55L29 55L29 57L30 57L30 53L31 53L31 56L32 56L32 57L44 57L44 56L43 56L43 55L42 55L42 54L43 54L43 52L42 52L42 51L41 51L41 52L42 52L42 54L41 54L41 55L42 55L42 56L40 56L40 55L39 55L39 54L40 54L40 53L39 53L39 52L35 52L35 49L34 49L34 50L33 50L33 48L31 48L31 47L34 47L34 48L35 48L35 47L34 47L34 46L35 46L35 45L37 45L37 46L36 46L36 47L37 47L37 46L39 46L39 47L40 47L40 46L43 46L43 47L44 47L44 50L43 50L43 49L42 49L42 47L41 47L41 48L40 48L40 49L39 49L39 48L38 48L38 49L37 49L37 48L36 48L36 49L37 49L37 50L36 50L36 51L37 51L37 50L43 50L43 51L44 51L44 50L46 50L46 49L45 49L45 48L46 48L46 47L48 47L48 48L47 48L47 49L48 49L48 50L47 50L47 51L45 51L45 52L44 52L44 53L45 53L45 52L47 52L47 53L46 53L46 54L45 54L45 55L46 55L46 54L47 54L47 55L49 55L49 56L48 56L48 57L49 57L49 56L50 56L50 57L52 57L52 56L53 56L53 55L54 55L54 56L57 56L57 54L55 54L55 55L54 55L54 53L53 53L53 52L55 52L55 51L56 51L56 50L55 50L55 49L54 49L54 48L57 48L57 46L56 46L56 43L57 43L57 40L55 40L55 39L56 39L56 38L55 38L55 37L54 37L54 38L55 38L55 39L54 39L54 40L55 40L55 41L54 41L54 42L53 42L53 39L52 39L52 38L51 38L51 39L52 39L52 40L50 40L50 43L49 43L49 41L48 41L48 39L49 39L49 37L51 37L51 36L53 36L53 35L54 35L54 36L56 36L56 35L57 35L57 34L55 34L55 35L54 35L54 32L55 32L55 33L56 33L56 31L57 31L57 27L56 27L56 25L57 25L57 24L55 24L55 23L57 23L57 22L56 22L56 21L57 21L57 20L56 20L56 19L57 19L57 15L55 15L55 14L56 14L56 12L57 12L57 10L56 10L56 12L55 12L55 11L54 11L54 10L53 10L53 9L55 9L55 8L53 8L53 9L50 9L50 10L51 10L51 12L52 12L52 14L51 14L51 13L50 13L50 12L49 12L49 9L44 9L44 8L45 8L45 6L44 6L44 7L43 7L43 6L42 6L42 5L43 5L43 4L44 4L44 5L45 5L45 4L46 4L46 3L47 3L47 5L46 5L46 7L47 7L47 8L48 8L48 7L49 7L49 6L48 6L48 7L47 7L47 5L48 5L48 0L44 0L44 1L43 1L43 0L42 0L42 1L43 1L43 2L42 2L42 3L43 3L43 4L42 4L42 5L40 5L40 4L41 4L41 3L40 3L40 2L41 2L41 0L40 0L40 1L39 1L39 0L38 0L38 1L37 1L37 2L38 2L38 1L39 1L39 3L38 3L38 4L37 4L37 3L36 3L36 2L35 2L35 3L34 3L34 2L33 2L33 0L29 0L29 1L28 1L28 0L25 0L25 1L24 1L24 2L23 2L23 1L22 1L22 2L20 2L20 3L18 3L18 2L17 2L17 0L15 0L15 1L14 1L14 2L13 2L13 0L11 0L11 1L10 1L10 0ZM18 0L18 1L21 1L21 0ZM34 0L34 1L36 1L36 0ZM15 1L15 2L14 2L14 3L16 3L16 6L15 6L15 4L12 4L12 5L11 5L11 7L10 7L10 6L9 6L9 7L10 7L10 8L11 8L11 9L12 9L12 10L11 10L11 11L13 11L13 12L9 12L9 11L10 11L10 9L9 9L9 11L8 11L8 10L7 10L7 9L6 9L6 10L5 10L5 11L6 11L6 12L7 12L7 13L6 13L6 14L7 14L7 15L6 15L6 16L4 16L4 17L3 17L3 18L5 18L5 17L6 17L6 18L7 18L7 17L6 17L6 16L7 16L7 15L11 15L11 18L10 18L10 16L8 16L8 17L9 17L9 18L8 18L8 19L11 19L11 20L10 20L10 21L12 21L12 22L14 22L14 21L15 21L15 22L16 22L16 23L17 23L17 24L18 24L18 25L17 25L17 26L14 26L14 25L15 25L15 23L14 23L14 24L13 24L13 23L12 23L12 24L11 24L11 25L9 25L9 23L6 23L6 24L7 24L7 25L6 25L6 26L12 26L12 27L9 27L9 30L11 30L11 29L12 29L12 28L13 28L13 29L14 29L14 30L12 30L12 31L10 31L10 33L11 33L11 35L10 35L10 34L7 34L7 33L6 33L6 32L8 32L8 33L9 33L9 31L6 31L6 32L5 32L5 31L4 31L4 30L3 30L3 31L4 31L4 33L2 33L2 32L1 32L1 33L2 33L2 34L3 34L3 35L4 35L4 36L7 36L7 37L6 37L6 38L7 38L7 39L6 39L6 40L4 40L4 39L5 39L5 38L4 38L4 39L3 39L3 40L2 40L2 41L1 41L1 42L2 42L2 41L3 41L3 40L4 40L4 42L3 42L3 44L2 44L2 43L1 43L1 45L2 45L2 46L1 46L1 47L2 47L2 46L3 46L3 47L5 47L5 45L6 45L6 46L7 46L7 45L6 45L6 44L7 44L7 43L6 43L6 42L7 42L7 41L6 41L6 40L7 40L7 39L10 39L10 41L9 41L9 40L8 40L8 41L9 41L9 43L8 43L8 45L9 45L9 43L10 43L10 44L11 44L11 45L10 45L10 46L9 46L9 47L10 47L10 49L9 49L9 51L12 51L12 52L11 52L11 53L12 53L12 52L13 52L13 53L14 53L14 52L13 52L13 50L12 50L12 49L13 49L13 47L14 47L14 46L15 46L15 43L16 43L16 46L17 46L17 47L16 47L16 48L15 48L15 49L14 49L14 50L15 50L15 51L18 51L18 52L19 52L19 54L22 54L22 53L23 53L23 52L24 52L24 51L25 51L25 52L26 52L26 51L25 51L25 50L24 50L24 49L23 49L23 50L21 50L21 52L20 52L20 50L17 50L17 49L16 49L16 48L17 48L17 47L19 47L19 48L18 48L18 49L20 49L20 48L22 48L22 47L25 47L25 46L26 46L26 48L25 48L25 49L26 49L26 48L27 48L27 47L29 47L29 48L30 48L30 47L29 47L29 46L30 46L30 45L31 45L31 46L34 46L34 45L35 45L35 44L34 44L34 41L35 41L35 42L37 42L37 41L39 41L39 42L40 42L40 43L43 43L43 46L44 46L44 47L45 47L45 45L46 45L46 44L47 44L47 45L48 45L48 44L49 44L49 46L48 46L48 47L49 47L49 48L50 48L50 44L51 44L51 46L52 46L52 47L51 47L51 48L52 48L52 47L53 47L53 46L54 46L54 47L55 47L55 46L54 46L54 45L55 45L55 44L54 44L54 43L52 43L52 44L51 44L51 43L50 43L50 44L49 44L49 43L48 43L48 42L46 42L46 41L47 41L47 39L48 39L48 37L49 37L49 31L48 31L48 32L47 32L47 30L46 30L46 29L44 29L44 28L46 28L46 27L48 27L48 26L47 26L47 25L49 25L49 24L50 24L50 25L51 25L51 26L52 26L52 25L51 25L51 24L50 24L50 23L51 23L51 22L52 22L52 24L53 24L53 26L54 26L54 25L55 25L55 24L53 24L53 22L54 22L54 23L55 23L55 22L54 22L54 21L55 21L55 20L54 20L54 19L53 19L53 22L52 22L52 19L51 19L51 18L55 18L55 16L53 16L53 15L51 15L51 17L50 17L50 14L49 14L49 16L48 16L48 13L49 13L49 12L48 12L48 13L47 13L47 12L46 12L46 11L45 11L45 10L44 10L44 12L41 12L41 11L43 11L43 10L42 10L42 9L41 9L41 10L40 10L40 9L39 9L39 8L36 8L36 12L34 12L34 13L36 13L36 12L37 12L37 10L38 10L38 9L39 9L39 10L40 10L40 11L38 11L38 12L39 12L39 15L38 15L38 16L39 16L39 17L38 17L38 19L37 19L37 18L36 18L36 19L37 19L37 20L35 20L35 21L34 21L34 19L35 19L35 17L36 17L36 15L37 15L37 14L35 14L35 16L34 16L34 17L33 17L33 16L32 16L32 17L31 17L31 18L28 18L28 17L29 17L29 16L27 16L27 17L24 17L24 16L25 16L25 14L26 14L26 15L29 15L29 14L31 14L31 15L33 15L33 14L32 14L32 13L33 13L33 12L32 12L32 13L31 13L31 11L32 11L32 10L33 10L33 11L34 11L34 9L35 9L35 7L36 7L36 6L37 6L37 7L38 7L38 5L37 5L37 4L36 4L36 6L35 6L35 5L34 5L34 3L32 3L32 4L31 4L31 5L32 5L32 6L31 6L31 9L32 9L32 10L31 10L31 11L30 11L30 13L28 13L28 14L27 14L27 13L26 13L26 10L27 10L27 11L29 11L29 10L28 10L28 9L26 9L26 8L24 8L24 6L23 6L23 7L22 7L22 6L21 6L21 8L19 8L19 7L20 7L20 6L19 6L19 7L18 7L18 5L21 5L21 4L22 4L22 5L24 5L24 3L23 3L23 2L22 2L22 3L20 3L20 4L18 4L18 3L16 3L16 1ZM25 1L25 2L26 2L26 1ZM27 1L27 2L28 2L28 1ZM29 1L29 2L31 2L31 1ZM46 1L46 2L47 2L47 1ZM11 2L11 3L10 3L10 4L11 4L11 3L12 3L12 2ZM43 2L43 3L44 3L44 2ZM22 3L22 4L23 4L23 3ZM25 3L25 5L26 5L26 4L28 4L28 3ZM17 4L17 5L18 5L18 4ZM12 5L12 7L11 7L11 8L12 8L12 9L13 9L13 10L15 10L15 9L13 9L13 6L14 6L14 8L15 8L15 6L14 6L14 5ZM27 5L27 8L30 8L30 5ZM33 5L33 6L32 6L32 7L33 7L33 8L32 8L32 9L33 9L33 8L34 8L34 7L35 7L35 6L34 6L34 5ZM16 6L16 7L17 7L17 8L16 8L16 10L17 10L17 11L14 11L14 13L13 13L13 14L12 14L12 13L11 13L11 14L12 14L12 17L13 17L13 21L14 21L14 19L15 19L15 17L16 17L16 19L18 19L18 20L16 20L16 21L17 21L17 22L19 22L19 19L21 19L21 21L20 21L20 22L21 22L21 23L24 23L24 22L26 22L26 24L23 24L23 25L21 25L21 24L19 24L19 23L18 23L18 24L19 24L19 25L18 25L18 26L20 26L20 28L19 28L19 27L18 27L18 28L17 28L17 29L16 29L16 30L18 30L18 28L19 28L19 29L20 29L20 28L23 28L23 29L21 29L21 30L23 30L23 32L22 32L22 33L21 33L21 32L20 32L20 30L19 30L19 32L18 32L18 31L17 31L17 33L16 33L16 34L15 34L15 35L13 35L13 34L12 34L12 35L11 35L11 38L12 38L12 36L13 36L13 38L14 38L14 40L12 40L12 39L11 39L11 40L12 40L12 41L11 41L11 43L12 43L12 46L13 46L13 41L14 41L14 40L15 40L15 42L14 42L14 43L15 43L15 42L16 42L16 40L18 40L18 39L20 39L20 40L19 40L19 41L20 41L20 44L19 44L19 46L20 46L20 47L22 47L22 44L23 44L23 43L22 43L22 42L23 42L23 41L24 41L24 42L25 42L25 43L24 43L24 44L26 44L26 46L28 46L28 45L30 45L30 44L32 44L32 45L34 45L34 44L32 44L32 43L33 43L33 41L34 41L34 39L35 39L35 40L38 40L38 39L41 39L41 38L43 38L43 39L42 39L42 40L41 40L41 41L40 41L40 40L39 40L39 41L40 41L40 42L43 42L43 43L45 43L45 44L46 44L46 42L45 42L45 41L46 41L46 40L44 40L44 39L46 39L46 37L48 37L48 36L47 36L47 35L48 35L48 34L47 34L47 32L46 32L46 30L45 30L45 33L44 33L44 34L43 34L43 32L44 32L44 31L43 31L43 27L44 27L44 26L42 26L42 24L41 24L41 23L42 23L42 22L43 22L43 21L42 21L42 19L43 19L43 20L44 20L44 19L43 19L43 18L44 18L44 17L45 17L45 19L46 19L46 23L45 23L45 22L44 22L44 24L43 24L43 25L45 25L45 24L46 24L46 25L47 25L47 24L46 24L46 23L47 23L47 21L48 21L48 24L49 24L49 23L50 23L50 22L51 22L51 20L50 20L50 19L48 19L48 18L49 18L49 17L48 17L48 16L47 16L47 15L46 15L46 13L45 13L45 12L44 12L44 13L41 13L41 12L40 12L40 13L41 13L41 14L40 14L40 15L42 15L42 16L41 16L41 17L39 17L39 19L38 19L38 20L39 20L39 19L40 19L40 21L38 21L38 22L39 22L39 23L40 23L40 24L41 24L41 25L40 25L40 26L42 26L42 27L41 27L41 29L39 29L39 30L40 30L40 33L38 33L38 34L39 34L39 35L38 35L38 36L37 36L37 35L36 35L36 34L35 34L35 35L33 35L33 36L31 36L31 35L30 35L30 36L29 36L29 34L30 34L30 33L31 33L31 34L32 34L32 33L33 33L33 32L34 32L34 33L37 33L37 32L39 32L39 31L38 31L38 27L39 27L39 28L40 28L40 27L39 27L39 24L38 24L38 25L37 25L37 24L34 24L34 23L37 23L37 21L36 21L36 22L34 22L34 21L33 21L33 22L32 22L32 20L33 20L33 19L34 19L34 18L32 18L32 19L30 19L30 21L29 21L29 22L28 22L28 21L27 21L27 19L28 19L28 18L25 18L25 20L23 20L23 21L24 21L24 22L22 22L22 19L21 19L21 18L22 18L22 17L23 17L23 18L24 18L24 17L23 17L23 16L24 16L24 15L23 15L23 16L22 16L22 17L20 17L20 18L19 18L19 15L16 15L16 14L15 14L15 12L17 12L17 13L18 13L18 14L20 14L20 11L21 11L21 10L20 10L20 9L19 9L19 8L18 8L18 7L17 7L17 6ZM25 6L25 7L26 7L26 6ZM28 6L28 7L29 7L29 6ZM33 6L33 7L34 7L34 6ZM39 6L39 7L40 7L40 6ZM41 6L41 7L42 7L42 8L43 8L43 7L42 7L42 6ZM17 8L17 9L18 9L18 8ZM0 9L0 10L1 10L1 9ZM22 9L22 12L21 12L21 14L23 14L23 11L24 11L24 10L26 10L26 9L24 9L24 10L23 10L23 9ZM6 10L6 11L7 11L7 12L8 12L8 11L7 11L7 10ZM47 10L47 11L48 11L48 10ZM18 11L18 12L19 12L19 11ZM52 11L52 12L53 12L53 13L55 13L55 12L53 12L53 11ZM0 12L0 13L1 13L1 14L2 14L2 13L1 13L1 12ZM3 13L3 14L4 14L4 13ZM8 13L8 14L10 14L10 13ZM13 14L13 17L15 17L15 16L16 16L16 17L17 17L17 16L16 16L16 15L14 15L14 14ZM42 14L42 15L43 15L43 17L44 17L44 16L45 16L45 14ZM20 15L20 16L21 16L21 15ZM46 16L46 17L47 17L47 16ZM41 17L41 18L42 18L42 17ZM18 18L18 19L19 19L19 18ZM46 18L46 19L47 19L47 18ZM8 20L8 21L9 21L9 20ZM25 20L25 21L26 21L26 20ZM48 20L48 21L49 21L49 22L50 22L50 21L49 21L49 20ZM1 21L1 23L2 23L2 22L3 22L3 21ZM6 21L6 22L7 22L7 21ZM30 21L30 22L31 22L31 23L30 23L30 24L29 24L29 23L28 23L28 24L29 24L29 26L31 26L31 25L33 25L33 23L32 23L32 22L31 22L31 21ZM0 25L0 26L1 26L1 27L2 27L2 25ZM24 25L24 26L25 26L25 25ZM27 25L27 26L28 26L28 25ZM35 25L35 27L34 27L34 26L32 26L32 27L31 27L31 28L32 28L32 30L31 30L31 31L30 31L30 32L31 32L31 33L32 33L32 32L33 32L33 31L34 31L34 32L35 32L35 31L34 31L34 30L35 30L35 27L38 27L38 26L36 26L36 25ZM13 26L13 28L14 28L14 29L15 29L15 28L16 28L16 27L14 27L14 26ZM22 26L22 27L23 27L23 28L24 28L24 27L23 27L23 26ZM5 27L5 30L8 30L8 27ZM25 27L25 29L24 29L24 30L26 30L26 27ZM27 27L27 30L30 30L30 27ZM49 27L49 30L52 30L52 27ZM55 27L55 28L53 28L53 29L55 29L55 30L56 30L56 29L55 29L55 28L56 28L56 27ZM6 28L6 29L7 29L7 28ZM28 28L28 29L29 29L29 28ZM50 28L50 29L51 29L51 28ZM33 29L33 30L32 30L32 31L31 31L31 32L32 32L32 31L33 31L33 30L34 30L34 29ZM36 29L36 32L37 32L37 29ZM41 29L41 31L42 31L42 32L41 32L41 33L42 33L42 32L43 32L43 31L42 31L42 29ZM14 30L14 31L13 31L13 33L15 33L15 32L14 32L14 31L15 31L15 30ZM53 30L53 31L50 31L50 33L51 33L51 35L53 35L53 34L52 34L52 33L53 33L53 32L54 32L54 30ZM24 31L24 32L23 32L23 35L21 35L21 33L20 33L20 34L18 34L18 33L17 33L17 34L16 34L16 35L17 35L17 34L18 34L18 35L19 35L19 36L18 36L18 37L20 37L20 38L21 38L21 39L23 39L23 40L25 40L25 39L26 39L26 40L27 40L27 38L29 38L29 39L28 39L28 41L26 41L26 43L27 43L27 44L28 44L28 43L29 43L29 44L30 44L30 43L32 43L32 42L31 42L31 41L30 41L30 42L29 42L29 39L30 39L30 40L32 40L32 39L34 39L34 38L33 38L33 37L32 37L32 39L31 39L31 36L30 36L30 38L29 38L29 36L26 36L26 33L24 33L24 32L25 32L25 31ZM26 31L26 32L27 32L27 35L28 35L28 32L27 32L27 31ZM5 33L5 35L7 35L7 36L9 36L9 37L7 37L7 38L9 38L9 37L10 37L10 35L7 35L7 34L6 34L6 33ZM40 34L40 36L39 36L39 37L40 37L40 36L42 36L42 34ZM23 35L23 36L20 36L20 37L22 37L22 38L23 38L23 39L25 39L25 36L24 36L24 35ZM16 36L16 37L17 37L17 36ZM35 36L35 37L36 37L36 36ZM43 36L43 38L44 38L44 36ZM45 36L45 37L46 37L46 36ZM1 37L1 38L3 38L3 37ZM14 37L14 38L15 38L15 37ZM26 37L26 38L27 38L27 37ZM37 37L37 38L36 38L36 39L37 39L37 38L38 38L38 37ZM15 39L15 40L16 40L16 39ZM20 40L20 41L22 41L22 40ZM42 40L42 41L43 41L43 42L44 42L44 41L43 41L43 40ZM5 41L5 42L4 42L4 45L3 45L3 46L4 46L4 45L5 45L5 42L6 42L6 41ZM51 41L51 42L52 42L52 41ZM18 42L18 43L19 43L19 42ZM27 42L27 43L28 43L28 42ZM21 43L21 44L20 44L20 46L21 46L21 44L22 44L22 43ZM37 43L37 45L38 45L38 44L39 44L39 45L40 45L40 44L39 44L39 43ZM53 44L53 45L52 45L52 46L53 46L53 45L54 45L54 44ZM23 45L23 46L25 46L25 45ZM11 47L11 49L10 49L10 50L11 50L11 49L12 49L12 47ZM15 49L15 50L16 50L16 49ZM27 49L27 52L30 52L30 49ZM31 49L31 50L32 50L32 52L31 52L31 53L32 53L32 55L34 55L34 54L35 54L35 52L33 52L33 50L32 50L32 49ZM49 49L49 52L52 52L52 49ZM53 49L53 51L55 51L55 50L54 50L54 49ZM28 50L28 51L29 51L29 50ZM50 50L50 51L51 51L51 50ZM22 51L22 52L21 52L21 53L22 53L22 52L23 52L23 51ZM47 51L47 52L48 52L48 51ZM9 52L9 54L10 54L10 52ZM32 52L32 53L33 53L33 52ZM56 52L56 53L57 53L57 52ZM37 53L37 55L36 55L36 56L38 56L38 53ZM47 53L47 54L50 54L50 55L51 55L51 54L53 54L53 53L51 53L51 54L50 54L50 53ZM23 54L23 55L24 55L24 54ZM20 55L20 56L21 56L21 55ZM45 56L45 57L47 57L47 56ZM0 0L0 7L7 7L7 0ZM1 1L1 6L6 6L6 1ZM2 2L2 5L5 5L5 2ZM50 0L50 7L57 7L57 0ZM51 1L51 6L56 6L56 1ZM52 2L52 5L55 5L55 2ZM0 50L0 57L7 57L7 50ZM1 51L1 56L6 56L6 51ZM2 52L2 55L5 55L5 52Z" fill="#000000"/></g></g></svg>
